<svg xmlns="http://www.w3.org/2000/svg" width="147" height="35" viewBox="0 0 147 35"><g fill="#000" fill-rule="nonzero"><path d="M9.88 34.72c3.12 0 5.98-.9 8.58-2.7 2.6-1.8 4.51-4.45 5.74-7.94.1-.24.16-.5.16-.8 0-.61-.25-1.11-.74-1.5a2.74 2.74 0 0 0-1.74-.58c-.53 0-1.02.13-1.46.4a2.2 2.2 0 0 0-.94 1.24c-.96 2.4-2.27 4.18-3.92 5.34a8.7 8.7 0 0 1-5.04 1.74 4.94 4.94 0 0 1-3.28-1.04A3.26 3.26 0 0 1 6 26.28c0-.45.08-.93.24-1.44l2.44-6.92c.19-.45.45-.83.8-1.12.35-.3.68-.44 1-.44.4 0 .7.1.9.32.2.21.3.5.3.84 0 .4-.15.9-.44 1.48a2.7 2.7 0 0 0-.32 1.2c0 .7.27 1.28.82 1.76a2.9 2.9 0 0 0 3.68.1c.55-.41 1-1.06 1.34-1.94.37-1.01.56-2 .56-2.96a5.6 5.6 0 0 0-3.3-5.22 8.2 8.2 0 0 0-8.02.82 8.77 8.77 0 0 0-3.24 4.52L.48 24c-.32.96-.48 1.9-.48 2.8 0 1.52.41 2.88 1.24 4.08.83 1.2 2 2.14 3.5 2.82 1.5.68 3.22 1.02 5.14 1.02Zm24.08 0c1.97 0 3.9-.62 5.76-1.86 1.87-1.24 3.39-3.34 4.56-6.3l.32-.88c.19-.5.35-.97.48-1.4.13-.43.2-.76.2-1 0-.64-.21-1.15-.64-1.52a2.29 2.29 0 0 0-1.56-.56c-.61 0-1.18.19-1.7.56-.52.37-.9.92-1.14 1.64-.72 2.27-1.62 3.93-2.7 4.98-1.08 1.05-2.14 1.58-3.18 1.58-.35 0-.61-.09-.8-.26-.19-.17-.28-.42-.28-.74 0-.3.07-.68.2-1.16l4.48-12.96c.16-.48.24-.92.24-1.32 0-.83-.29-1.48-.86-1.96a3.1 3.1 0 0 0-2.06-.72c-.59 0-1.14.13-1.66.4a3.3 3.3 0 0 0-1.26 1.12 7.2 7.2 0 0 0-1.9-.8 9.39 9.39 0 0 0-2.54-.32 7.4 7.4 0 0 0-3.98 1.16 6.21 6.21 0 0 0-2.62 3.36l-3.76 10.76c-.27.8-.4 1.52-.4 2.16 0 1.1.27 2.1.82 3.02a6.11 6.11 0 0 0 5.38 3.02c.93 0 1.86-.2 2.78-.58a8.92 8.92 0 0 0 2.5-1.58 4.4 4.4 0 0 0 2.4 1.68c1.04.32 2.01.48 2.92.48Zm-9.2-4.76c-.43 0-.75-.13-.98-.38-.23-.25-.34-.62-.34-1.1 0-.43.08-.88.24-1.36l2.56-8.04c.56-1.84 1.4-2.76 2.52-2.76.4 0 .77.2 1.1.58.33.39.5.9.5 1.54 0 .56-.16 1.35-.48 2.36l-1.92 5.96a5.2 5.2 0 0 1-1.46 2.46c-.6.5-1.18.74-1.74.74Zm28.72 4.76c2.19 0 4.22-.93 6.1-2.8 1.88-1.87 3.4-4.48 4.58-7.84a1.7 1.7 0 0 0-.68-2.08 3.06 3.06 0 0 0-3.3-.14c-.44.28-.74.7-.9 1.26a20.45 20.45 0 0 1-2.58 4.94c-.95 1.27-1.83 1.9-2.66 1.9a.7.7 0 0 1-.62-.32 1.3 1.3 0 0 1-.22-.76c0-.3.05-.59.16-.88l2.36-6.56c.27-.88.4-1.61.4-2.2 0-1.65-.71-2.94-2.14-3.86a19.42 19.42 0 0 0-4.9-2.22 3.23 3.23 0 0 0-.88-3.38 3.33 3.33 0 0 0-2.4-1.02c-1.15 0-2.06.43-2.74 1.28a4.79 4.79 0 0 0-1.02 3.08 4.4 4.4 0 0 0 1 2.84l-2.92 7.88c-.08.32-.12.61-.12.88 0 .64.21 1.13.64 1.48.43.35.93.52 1.52.52a2.93 2.93 0 0 0 2.76-1.92l2.24-6c.13.03.4.1.82.24.41.13.81.33 1.2.58.39.25.58.65.58 1.18 0 .19-.04.43-.12.72l-1.76 4.88a7.7 7.7 0 0 0-.48 2.56A5.57 5.57 0 0 0 50.42 34c.92.48 1.94.72 3.06.72Zm15.2-27.16c.9 0 1.68-.33 2.32-.98.64-.65.96-1.43.96-2.34 0-.9-.32-1.67-.96-2.3A3.2 3.2 0 0 0 68.68 1c-.9 0-1.68.31-2.32.94a3.1 3.1 0 0 0-.96 2.3c0 .9.32 1.69.96 2.34.64.65 1.41.98 2.32.98Zm-4.52 27.16c2.21 0 4.28-.82 6.2-2.46 1.92-1.64 3.53-4.38 4.84-8.22.08-.24.12-.48.12-.72 0-.59-.24-1.07-.72-1.44a2.84 2.84 0 0 0-4.32 1.24c-.88 2.4-1.8 4.14-2.78 5.22-.97 1.08-1.91 1.62-2.82 1.62-.45 0-.82-.13-1.1-.38a1.26 1.26 0 0 1-.42-.98c0-.19.04-.4.12-.64l4.4-12.56c.24-.77.36-1.27.36-1.48a2.5 2.5 0 0 0-.8-1.96 2.72 2.72 0 0 0-1.88-.72c-.67 0-1.3.23-1.88.7A4.2 4.2 0 0 0 62.16 14c-.72 2.13-1.55 4.5-2.48 7.12-.67 2.03-1.25 3.73-1.76 5.12-.37 1.25-.56 2.1-.56 2.56 0 1.81.65 3.25 1.96 4.32a7.4 7.4 0 0 0 4.84 1.6Zm21.32 0c2.19 0 4.29-.86 6.3-2.58 2.01-1.72 3.65-4.42 4.9-8.1.1-.37.16-.64.16-.8a1.7 1.7 0 0 0-.72-1.42 2.79 2.79 0 0 0-1.72-.54c-.59 0-1.12.15-1.6.46-.48.3-.8.77-.96 1.38-.85 2.3-1.79 4-2.8 5.14-1.01 1.13-2 1.7-2.96 1.7-.37 0-.67-.11-.9-.34a1.17 1.17 0 0 1-.34-.86c0-.24.07-.56.2-.96L93.2 4.24a5.7 5.7 0 0 0 .36-1.6c0-.83-.28-1.47-.84-1.94a2.97 2.97 0 0 0-1.96-.7 2.6 2.6 0 0 0-1.78.74c-.55.5-1 1.25-1.34 2.26L84 13.32a6.68 6.68 0 0 0-4.84-2.08c-1.39 0-2.69.39-3.9 1.16a6.27 6.27 0 0 0-2.58 3.32l-3.8 10.8c-.27.72-.4 1.48-.4 2.28a5.64 5.64 0 0 0 3.12 5.16c.96.5 2.01.76 3.16.76.99 0 1.97-.18 2.94-.54a7.48 7.48 0 0 0 2.62-1.66c.61.7 1.38 1.23 2.3 1.62.92.39 1.87.58 2.86.58Zm-8.08-6.68c-.67.45-1.25.63-1.76.52-.64-.16-.96-.64-.96-1.44 0-.43.08-.88.24-1.36l2.28-6.68a5 5 0 0 1 1.2-2.16c.45-.4.9-.6 1.32-.6.4 0 .77.2 1.1.58.33.39.5.9.5 1.54a7 7 0 0 1-.48 2.36l-1.64 4.6c-.53 1.3-1.13 2.19-1.8 2.64Zm29 6.68c1.97 0 3.9-.62 5.76-1.86 1.87-1.24 3.39-3.34 4.56-6.3l.32-.88c.19-.5.35-.97.48-1.4.13-.43.2-.76.2-1 0-.64-.21-1.15-.64-1.52a2.29 2.29 0 0 0-1.56-.56c-.61 0-1.18.19-1.7.56-.52.37-.9.92-1.14 1.64-.72 2.27-1.62 3.93-2.7 4.98-1.08 1.05-2.14 1.58-3.18 1.58-.35 0-.61-.09-.8-.26-.19-.17-.28-.42-.28-.74 0-.3.07-.68.2-1.16l4.48-12.96c.16-.48.24-.92.24-1.32 0-.83-.29-1.48-.86-1.96a3.1 3.1 0 0 0-2.06-.72c-.59 0-1.14.13-1.66.4a3.3 3.3 0 0 0-1.26 1.12 7.2 7.2 0 0 0-1.9-.8 9.39 9.39 0 0 0-2.54-.32 7.4 7.4 0 0 0-3.98 1.16 6.21 6.21 0 0 0-2.62 3.36L90 26.52c-.27.8-.4 1.52-.4 2.16 0 1.1.27 2.1.82 3.02a6.11 6.11 0 0 0 5.38 3.02c.93 0 1.86-.2 2.78-.58a8.92 8.92 0 0 0 2.5-1.58 4.4 4.4 0 0 0 2.4 1.68c1.04.32 2.01.48 2.92.48Zm-9.2-4.76c-.43 0-.75-.13-.98-.38-.23-.25-.34-.62-.34-1.1 0-.43.08-.88.24-1.36l2.56-8.04c.56-1.84 1.4-2.76 2.52-2.76.4 0 .77.2 1.1.58.33.39.5.9.5 1.54 0 .56-.16 1.35-.48 2.36l-1.92 5.96a5.2 5.2 0 0 1-1.46 2.46c-.6.5-1.18.74-1.74.74Zm30.76 4.76c2.19 0 4.29-.86 6.3-2.58 2.01-1.72 3.65-4.42 4.9-8.1.1-.37.16-.64.16-.8a1.7 1.7 0 0 0-.72-1.42 2.79 2.79 0 0 0-1.72-.54c-.59 0-1.12.15-1.6.46-.48.3-.8.77-.96 1.38-.85 2.3-1.79 4-2.8 5.14-1.01 1.13-2 1.7-2.96 1.7-.37 0-.67-.11-.9-.34a1.17 1.17 0 0 1-.34-.86c0-.24.07-.56.2-.96l8.16-23.56a5.7 5.7 0 0 0 .36-1.6c0-.83-.28-1.47-.84-1.94a2.97 2.97 0 0 0-1.96-.7 2.6 2.6 0 0 0-1.78.74c-.55.5-1 1.25-1.34 2.26l-3.64 10.32a6.68 6.68 0 0 0-4.84-2.08c-1.39 0-2.69.39-3.9 1.16a6.27 6.27 0 0 0-2.58 3.32l-3.8 10.8c-.27.72-.4 1.48-.4 2.28a5.64 5.64 0 0 0 3.12 5.16c.96.5 2.01.76 3.16.76.99 0 1.97-.18 2.94-.54a7.48 7.48 0 0 0 2.62-1.66c.61.7 1.38 1.23 2.3 1.62.92.39 1.87.58 2.86.58Zm-8.08-6.68c-.67.45-1.25.63-1.76.52-.64-.16-.96-.64-.96-1.44 0-.43.08-.88.24-1.36l2.28-6.68a5 5 0 0 1 1.2-2.16c.45-.4.9-.6 1.32-.6.4 0 .77.2 1.1.58.33.39.5.9.5 1.54a7 7 0 0 1-.48 2.36l-1.64 4.6c-.53 1.3-1.13 2.19-1.8 2.64ZM142.96 34.44c.9 0 1.68-.32 2.32-.96.64-.64.96-1.41.96-2.32 0-.9-.32-1.68-.96-2.32a3.16 3.16 0 0 0-2.32-.96c-.9 0-1.68.31-2.32.94-.64.63-.96 1.4-.96 2.34 0 .9.32 1.68.96 2.32.64.64 1.41.96 2.32.96Z"></path></g></svg>