<svg xmlns="http://www.w3.org/2000/svg" xmlns:xlink="http://www.w3.org/1999/xlink" width="156px" height="34px" viewBox="0 0 156 34"><title>Shape</title><g id="Pages" stroke="none" stroke-width="1" fill="none" fill-rule="evenodd"><g id="Home-1-2" transform="translate(-77.000000, -4713.000000)" fill="#000000" fill-rule="nonzero"><g id="Group-22" transform="translate(62.000000, 4649.000000)"><g id="Group-14" transform="translate(0.000000, 44.000000)"><g id="jolie" transform="translate(15.000000, 20.000000)"><path d="M8.98296837,34 C18.5985401,34 24.4184915,30.1167513 24.4184915,21.8756345 L24.4184915,0.733502538 L6.36820762,0.733502538 L6.36820762,6.12690355 L17.6707218,6.12690355 L17.6707218,21.7030457 C17.6707218,25.6294416 14.1703163,28.1319797 7.50689376,28.1319797 C5.06082725,28.1319797 2.53041363,27.786802 0,26.9670051 L0,32.6624365 C2.4460665,33.4822335 5.52473642,34 8.98296837,34 Z M47.8248175,33.8705584 C59.296026,33.8705584 66.5920519,27.1827411 66.5920519,16.9137056 C66.5920519,6.68781726 59.296026,0 47.8248175,0 C36.3536091,0 29.0575831,6.68781726 29.0575831,16.9137056 C29.0575831,27.1827411 36.3536091,33.8705584 47.8248175,33.8705584 Z M47.8248175,28.1751269 C40.5287916,28.1751269 35.8053528,23.7741117 35.8053528,16.9137056 C35.8053528,10.0532995 40.5287916,5.60913706 47.8248175,5.60913706 C55.1208435,5.60913706 59.8442822,10.0532995 59.8442822,16.9137056 C59.8442822,23.7741117 55.1208435,28.1751269 47.8248175,28.1751269 Z M98.0113544,33.0939086 L98.0113544,27.4847716 L78.189781,27.4847716 L78.189781,0.733502538 L71.4420114,0.733502538 L71.4420114,33.0939086 L98.0113544,33.0939086 Z M109.398216,33.0939086 L109.398216,0.733502538 L102.650446,0.733502538 L102.650446,33.0939086 L109.398216,33.0939086 Z M144.107056,33.0939086 L144.107056,27.4847716 L122.050284,27.4847716 L122.050284,19.3730964 L141.492295,19.3730964 L141.492295,13.9365482 L122.050284,13.9365482 L122.050284,6.34263959 L143.769667,6.34263959 L143.769667,0.733502538 L115.302514,0.733502538 L115.302514,33.0939086 L144.107056,33.0939086 Z M156,33.0939086 L156,26.1903553 L148.830495,26.1903553 L148.830495,33.0939086 L156,33.0939086 Z" id="Shape"></path></g></g></g></g></g></svg>