<svg xmlns="http://www.w3.org/2000/svg" xmlns:xlink="http://www.w3.org/1999/xlink" width="126px" height="34px" viewBox="0 0 126 34"><title>petmania</title><g id="Pages" stroke="none" stroke-width="1" fill="none" fill-rule="evenodd"><g id="Home-1-2" transform="translate(-952.000000, -4717.000000)" fill="#000000" fill-rule="nonzero"><g id="Group-22" transform="translate(62.000000, 4649.000000)"><g id="Group-14" transform="translate(0.000000, 44.000000)"><g id="Group-6" transform="translate(15.000000, 17.000000)"><g id="petmania" transform="translate(875.000000, 7.000000)"><path d="M37.3050585,32.6028686 C38.1712332,32.6028686 38.6990585,32.4208156 38.8885342,32.0567098 C38.9968061,31.8544287 39.0610925,31.6757472 39.0813934,31.520665 C39.1016944,31.3655829 39.1118449,31.1329597 39.1118449,30.8227955 L39.1118449,30.8227955 L39.1118449,28.5370198 L41.6494662,28.5370198 C42.8539905,28.5370198 44.0179128,28.1054869 45.1412332,27.2424211 C45.6961264,26.8243737 46.1495147,26.2613581 46.5013982,25.5533745 C46.8532817,24.8453909 47.0292235,24.0531235 47.0292235,23.1765723 C47.0292235,22.3000212 46.8532817,21.5043824 46.5013982,20.7896561 C46.1495147,20.0749298 45.6961264,19.5085429 45.1412332,19.0904954 C44.0179128,18.2274296 42.8607575,17.7958968 41.6697672,17.7958968 L41.6697672,17.7958968 L37.3253595,17.7958968 C36.4591847,17.7958968 35.9313595,17.9779497 35.7418838,18.3420556 C35.6336119,18.5443366 35.5693255,18.7230182 35.5490245,18.8781003 C35.5287236,19.0331824 35.5185731,19.2658056 35.5185731,19.5759699 L35.5185731,19.5759699 L35.5185731,30.8025674 C35.5185731,31.2745564 35.559175,31.6251769 35.6403789,31.8544287 C35.8027867,32.3533886 36.3576799,32.6028686 37.3050585,32.6028686 Z M41.6697672,24.9566454 L39.1118449,24.9566454 L39.1118449,21.3762711 L41.6494662,21.3762711 C42.0690196,21.3762711 42.475039,21.5279819 42.8675245,21.8314034 C43.2600099,22.134825 43.4562526,22.5832146 43.4562526,23.1765723 C43.4562526,23.76993 43.2600099,24.2149483 42.8675245,24.5116272 C42.475039,24.808306 42.0757866,24.9566454 41.6697672,24.9566454 L41.6697672,24.9566454 Z M53.2007186,32.886062 C56.0834564,32.886062 57.5248253,32.2859616 57.5248253,31.0857608 C57.5248253,30.8295382 57.4368545,30.5193739 57.2609127,30.155268 C56.9496312,29.5484249 56.5774467,29.2450034 56.1443593,29.2450034 C55.9278156,29.2450034 55.657136,29.3191731 55.3323205,29.4675125 L55.3323205,29.4675125 L55.1090098,29.5484249 C54.6623885,29.7102498 54.0465924,29.7911622 53.2616215,29.7911622 C52.8150001,29.7911622 52.3683788,29.6630509 51.9217574,29.4068282 C51.4751361,29.1506056 51.2518254,28.8336986 51.2518254,28.4561073 L51.2518254,28.4561073 L56.0631555,28.4561073 C56.5639127,28.4561073 57.0206846,28.2571977 57.433471,27.8593783 C57.8462574,27.4615589 58.0526506,26.8513445 58.0526506,26.0287349 C58.0526506,25.19264 57.8225729,24.423972 57.3624176,23.7227311 C56.4827088,22.4011617 55.1022428,21.740377 53.2210196,21.740377 C51.5698739,21.740377 50.1927914,22.2494509 49.089772,23.2675988 C47.9867526,24.2857467 47.4352429,25.644401 47.4352429,27.3435617 C47.4352429,28.6921019 47.8615633,29.9125308 48.714204,31.0048484 C49.1472914,31.5712353 49.7529371,32.0263676 50.5311409,32.3702454 C51.3093448,32.7141231 52.199204,32.886062 53.2007186,32.886062 Z M53.7691458,26.6153499 L51.2112234,26.6153499 C51.2112234,26.2107879 51.4277671,25.8298252 51.8608545,25.4724621 C52.2939419,25.1150989 52.7304128,24.9364173 53.1702671,24.9364173 C53.6101215,24.9364173 53.948471,25.0308151 54.1853157,25.2196108 C54.4221603,25.4084064 54.5405826,25.6578864 54.5405826,25.9680506 C54.5405826,26.3995835 54.283437,26.6153499 53.7691458,26.6153499 L53.7691458,26.6153499 Z M64.8331748,32.6230967 C65.1309224,32.6230967 65.3576166,32.6129826 65.5132573,32.5927545 C65.6688981,32.5725264 65.8482233,32.5152135 66.0512331,32.4208156 C66.4301845,32.23202 66.6196602,31.712832 66.6196602,30.8632517 C66.6196602,30.1350399 66.4640195,29.683279 66.1527379,29.5079687 C65.9632622,29.4000855 65.7839369,29.3360299 65.6147622,29.3158018 C65.4455874,29.2955736 65.2019758,29.2854596 64.8839272,29.2854596 C64.5658787,29.2854596 64.349335,29.2045472 64.2342962,29.0427224 C64.1192573,28.8808975 64.0617379,28.6179322 64.0617379,28.2538263 L64.0617379,28.2538263 L64.0617379,25.462348 L65.381301,25.5432604 C65.6925826,25.5432604 65.9260437,25.5331464 66.0816845,25.5129183 C66.2373253,25.4926902 66.4166505,25.4353772 66.6196602,25.3409794 C66.9850777,25.1521838 67.1677864,24.6329958 67.1677864,23.7834154 C67.1677864,22.9203497 66.9918447,22.4011617 66.6399612,22.2258515 C66.4369515,22.1179682 66.2576263,22.0539126 66.1019855,22.0336845 C65.9463447,22.0134564 65.716267,22.0033423 65.4117525,22.0033423 C65.1072379,22.0033423 64.6572331,22.0303131 64.0617379,22.0842547 L64.0617379,22.0842547 L64.0617379,20.1019006 C64.0617379,19.6299115 64.027903,19.2860337 63.9602331,19.0702673 C63.7842913,18.5713074 63.2361651,18.3218275 62.3158544,18.3218275 C61.4496797,18.3218275 60.9286214,18.490395 60.7526797,18.8275301 C60.6444078,19.0028403 60.5801214,19.1646651 60.5598205,19.3130045 C60.5395195,19.461344 60.529369,19.6905958 60.529369,20.0007601 L60.529369,20.0007601 L60.529369,22.0842547 L59.859437,22.0033423 C59.5346214,22.0033423 59.2639418,22.0909974 59.0473982,22.2663077 C58.9255923,22.3741909 58.8308545,22.5528725 58.7631846,22.8023524 C58.6955147,23.0518323 58.6616797,23.4530231 58.6616797,24.0059246 C58.6616797,24.5588261 58.7598011,24.9499027 58.9560438,25.1791546 C59.1522865,25.4084064 59.3992816,25.5230323 59.6970292,25.5230323 C59.9947768,25.5230323 60.2722234,25.5028042 60.529369,25.462348 L60.529369,25.462348 L60.529369,28.4561073 C60.529369,29.9664724 60.8947865,31.0385619 61.6256214,31.6723758 C62.3564564,32.3061897 63.4256408,32.6230967 64.8331748,32.6230967 Z M82.5762232,32.6028686 C82.9687087,32.6028686 83.2935242,32.5624124 83.5506698,32.4815 C84.0649611,32.3196751 84.3221067,31.7735163 84.3221067,30.8430236 L84.3221067,30.8430236 L84.3221067,19.6164261 C84.3221067,19.3062618 84.3119562,19.0702673 84.2916553,18.9084425 C84.2713543,18.7466176 84.2070679,18.5645647 84.098796,18.3622837 C83.9093203,17.9981778 83.3848786,17.8161249 82.5254708,17.8161249 C81.666063,17.8161249 81.1213203,17.9981778 80.8912427,18.3622837 C80.1198058,19.3332326 78.583699,21.3358149 76.2829223,24.3700304 L76.2829223,24.3700304 L71.6746019,18.3420556 L71.5527961,18.2206869 C71.4715922,18.1262891 71.299034,18.0352627 71.0351214,17.9476075 C70.7712087,17.8599524 70.4565437,17.8161249 70.0911262,17.8161249 C69.2384855,17.8161249 68.7106602,17.9914351 68.5076505,18.3420556 C68.3993787,18.5443366 68.3350923,18.7230182 68.3147913,18.8781003 C68.2944903,19.0331824 68.2843398,19.2658056 68.2843398,19.5759699 L68.2843398,19.5759699 L68.2843398,30.8025674 C68.2843398,31.126217 68.2944903,31.3689543 68.3147913,31.5307791 C68.3350923,31.6926039 68.3993787,31.8679142 68.5076505,32.0567098 C68.7106602,32.4208156 69.2249515,32.6028686 70.0505243,32.6028686 C70.9031651,32.6028686 71.4309903,32.4208156 71.634,32.0567098 C71.7422718,31.8679142 71.8065583,31.6959753 71.8268592,31.5408931 C71.8471602,31.385811 71.8573107,31.1531878 71.8573107,30.8430236 L71.8573107,30.8430236 L71.8573107,24.0261527 C71.9249806,24.1070651 72.358068,24.6970514 73.1565728,25.7961117 C73.9550777,26.895172 74.4896699,27.6132697 74.7603495,27.9504048 L74.7603495,27.9504048 L74.9227573,28.1729139 C75.0310291,28.3077679 75.2103543,28.4459933 75.460733,28.58759 C75.7111116,28.7291867 75.9885582,28.7999851 76.2930728,28.7999851 C76.5975873,28.7999851 76.8818009,28.722444 77.1457136,28.5673619 C77.4096262,28.4122798 77.5754174,28.2909112 77.6430873,28.2032561 C77.7107572,28.1156009 77.8325631,27.9571475 78.0085048,27.7278956 L78.0498318,27.6735584 C78.2446245,27.4155125 78.6436352,26.8638667 79.246864,26.0186209 C79.8964951,25.1083562 80.3904854,24.4442001 80.7288349,24.0261527 L80.7288349,24.0261527 L80.7288349,30.8025674 C80.7288349,31.2745564 80.7626698,31.6251769 80.8303397,31.8544287 C80.8980096,32.029739 80.9927475,32.164593 81.1145533,32.2589908 C81.2363592,32.3533886 81.4123009,32.4343011 81.6423786,32.5017281 C81.8724562,32.5691551 82.1837378,32.6028686 82.5762232,32.6028686 Z M94.8278594,32.5826405 C95.5654614,32.5826405 96.0290002,32.4073302 96.2184759,32.0567098 C96.3132138,31.8544287 96.3707332,31.6757472 96.3910342,31.520665 C96.4113352,31.3655829 96.4214856,31.1329597 96.4214856,30.8227955 L96.4214856,30.8227955 L96.4214856,23.7429592 C96.4214856,23.432795 96.4113352,23.2001718 96.3910342,23.0450896 C96.3707332,22.8900075 96.3098303,22.7113259 96.2083255,22.5090449 C96.1068206,22.3067639 95.9274954,22.1651671 95.6703497,22.0842547 C95.4132041,22.0033423 95.0207187,21.9628861 94.4928934,21.9628861 C93.5049125,21.9628861 92.9703202,22.3404774 92.8891164,23.0956599 C92.7943785,22.9608059 92.6725727,22.8225805 92.5236989,22.6809838 C92.3748251,22.5393871 92.1109125,22.3876763 91.731961,22.2258515 C91.3530096,22.0640266 90.9334562,21.9831142 90.4733008,21.9831142 C89.2687766,21.9831142 88.1623737,22.5124163 87.1540921,23.5710203 C86.1458106,24.6296244 85.6416698,25.8635387 85.6416698,27.2727633 C85.6416698,28.6819878 86.1424271,29.9192735 87.1439416,30.9846203 C88.1454562,32.0499671 89.2315581,32.5826405 90.4022474,32.5826405 C91.5729368,32.5826405 92.4086601,32.2252773 92.9094173,31.510551 C92.9500193,31.8611714 93.0955096,32.1275081 93.3458882,32.3095611 C93.5962668,32.491614 94.0902575,32.5826405 94.8278594,32.5826405 Z M91.0011261,29.0427224 C90.5003688,29.0427224 90.0740484,28.8640408 89.7221649,28.5066776 C89.3702814,28.1493144 89.1943397,27.7481237 89.1943397,27.3031054 C89.1943397,26.8580872 89.3601309,26.4467824 89.6917135,26.0691911 C90.023296,25.6915999 90.4563834,25.5028042 90.9909756,25.5028042 C91.5255678,25.5028042 91.9518882,25.6915999 92.2699368,26.0691911 C92.5879853,26.4467824 92.7470096,26.8547158 92.7470096,27.2929914 C92.7470096,27.731267 92.5812183,28.1324577 92.2496358,28.4965636 C91.9180533,28.8606694 91.5018834,29.0427224 91.0011261,29.0427224 Z M106.937388,32.6028686 C107.803563,32.6028686 108.331388,32.4208156 108.520864,32.0567098 C108.615602,31.8679142 108.673121,31.6959753 108.693422,31.5408931 C108.713723,31.385811 108.723874,31.1531878 108.723874,30.8430236 L108.723874,30.8430236 L108.723874,27.2828773 C108.723874,25.7994831 108.273869,24.5419693 107.373859,23.510336 C106.47385,22.4787027 105.347146,21.9628861 103.993748,21.9628861 C103.438855,21.9628861 102.93133,22.1179682 102.471175,22.4281325 C102.295233,22.5360157 102.112524,22.6776124 101.923049,22.8529227 C101.733573,23.0282329 101.611767,23.1630869 101.557631,23.2574847 C101.557631,22.9338351 101.489961,22.6573843 101.354622,22.4281325 C101.165146,22.1179682 100.657622,21.9628861 99.8320487,21.9628861 C98.979408,21.9628861 98.4583497,22.1314536 98.268874,22.4685887 C98.1606021,22.6573843 98.0963157,22.8293232 98.0760148,22.9844053 C98.0557138,23.1394875 98.0455633,23.365368 98.0455633,23.6620468 L98.0455633,23.6620468 L98.0455633,30.8227955 C98.0455633,31.1329597 98.0557138,31.3655829 98.0760148,31.520665 C98.0963157,31.6757472 98.1538351,31.8544287 98.248573,32.0567098 C98.4380487,32.4208156 98.959107,32.6028686 99.8117478,32.6028686 C100.677923,32.6028686 101.198981,32.4208156 101.374923,32.0567098 C101.483194,31.8679142 101.547481,31.6959753 101.567782,31.5408931 C101.588083,31.385811 101.598233,31.1531878 101.598233,30.8430236 L101.598233,30.8430236 L101.598233,27.2626492 C101.598233,26.7367185 101.764024,26.3119284 102.095607,25.9882787 C102.427189,25.6646291 102.860277,25.5028042 103.394869,25.5028042 C103.929461,25.5028042 104.355782,25.6578864 104.67383,25.9680506 C104.991879,26.2782149 105.150903,26.7097477 105.150903,27.2626492 L105.150903,27.2626492 L105.150903,30.8227955 C105.150903,31.2812991 105.191505,31.6251769 105.272709,31.8544287 C105.421583,32.3533886 105.976476,32.6028686 106.937388,32.6028686 Z M112.124287,20.5266908 C112.550607,20.5266908 112.89234,20.4862345 113.149486,20.4053221 C113.406631,20.3244097 113.582573,20.1895557 113.677311,20.0007601 C113.785583,19.798479 113.849869,19.6197974 113.87017,19.4647153 C113.890471,19.3096332 113.900621,19.07701 113.900621,18.7668457 C113.900621,18.4566815 113.890471,18.2240583 113.87017,18.0689762 C113.849869,17.913894 113.785583,17.7352125 113.677311,17.5329314 C113.501369,17.1688256 112.987078,16.9867726 112.134437,16.9867726 C111.268262,16.9867726 110.740437,17.1688256 110.550961,17.5329314 C110.456223,17.7217271 110.398704,17.8936659 110.378403,18.0487481 C110.358102,18.2038302 110.347952,18.4364534 110.347952,18.7466176 C110.347952,19.0567819 110.358102,19.2894051 110.378403,19.4444872 C110.398704,19.5995693 110.459607,19.7782509 110.561112,19.980532 C110.662617,20.182813 110.841942,20.3244097 111.099087,20.4053221 C111.356233,20.4862345 111.697966,20.5266908 112.124287,20.5266908 Z M112.114136,32.6230967 C112.980311,32.6230967 113.501369,32.4477865 113.677311,32.097166 C113.785583,31.894885 113.849869,31.7162034 113.87017,31.5611212 C113.890471,31.4060391 113.900621,31.1734159 113.900621,30.8632517 L113.900621,30.8632517 L113.900621,23.7834154 C113.900621,23.5271928 113.893854,23.3316544 113.88032,23.1968004 C113.866786,22.8057238 113.744981,22.5157876 113.514903,22.326992 C113.244223,22.0977401 112.784068,21.9831142 112.134437,21.9831142 C111.268262,21.9831142 110.740437,22.1584244 110.550961,22.5090449 C110.456223,22.7113259 110.398704,22.8900075 110.378403,23.0450896 C110.358102,23.2001718 110.347952,23.432795 110.347952,23.7429592 L110.347952,23.7429592 L110.347952,30.8430236 C110.347952,31.1666732 110.358102,31.4026678 110.378403,31.5510072 C110.398704,31.6993466 110.456223,31.8746569 110.550961,32.0769379 C110.740437,32.4410438 111.261495,32.6230967 112.114136,32.6230967 Z M124.406374,32.5826405 C125.143976,32.5826405 125.607515,32.4073302 125.79699,32.0567098 C125.891728,31.8544287 125.949248,31.6757472 125.969549,31.520665 C125.98985,31.3655829 126,31.1329597 126,30.8227955 L126,30.8227955 L126,23.7429592 C126,23.432795 125.98985,23.2001718 125.969549,23.0450896 C125.949248,22.8900075 125.888345,22.7113259 125.78684,22.5090449 C125.685335,22.3067639 125.50601,22.1651671 125.248864,22.0842547 C124.991718,22.0033423 124.599233,21.9628861 124.071408,21.9628861 C123.083427,21.9628861 122.548835,22.3404774 122.467631,23.0956599 C122.372893,22.9608059 122.251087,22.8225805 122.102214,22.6809838 C121.95334,22.5393871 121.689427,22.3876763 121.310476,22.2258515 C120.931524,22.0640266 120.511971,21.9831142 120.051816,21.9831142 C118.847291,21.9831142 117.740888,22.5124163 116.732607,23.5710203 C115.724325,24.6296244 115.220185,25.8635387 115.220185,27.2727633 C115.220185,28.6819878 115.720942,29.9192735 116.722456,30.9846203 C117.723971,32.0499671 118.810073,32.5826405 119.980762,32.5826405 C121.151451,32.5826405 121.987175,32.2252773 122.487932,31.510551 C122.528534,31.8611714 122.674024,32.1275081 122.924403,32.3095611 C123.174782,32.491614 123.668772,32.5826405 124.406374,32.5826405 Z M120.579641,29.0427224 C120.078884,29.0427224 119.652563,28.8640408 119.30068,28.5066776 C118.948796,28.1493144 118.772854,27.7481237 118.772854,27.3031054 C118.772854,26.8580872 118.938646,26.4467824 119.270228,26.0691911 C119.601811,25.6915999 120.034898,25.5028042 120.56949,25.5028042 C121.104083,25.5028042 121.530403,25.6915999 121.848451,26.0691911 C122.1665,26.4467824 122.325524,26.8547158 122.325524,27.2929914 C122.325524,27.731267 122.159733,28.1324577 121.828151,28.4965636 C121.496568,28.8606694 121.080398,29.0427224 120.579641,29.0427224 Z" id="PetMania"></path><path d="M32.9352182,14.6760586 C32.3400292,13.3665313 31.2739847,11.5868921 30.0703675,10.5270915 C28.4884676,9.13790334 26.496457,8.28522823 24.7428537,8.25071866 L24.605298,8.25071866 C22.4361662,8.25071866 22.026123,9.1485112 21.975875,9.68509234 C21.8224491,11.278822 23.7059118,11.4700695 24.3275453,11.5338187 C26.4623092,11.7489714 28.2319282,13.2284931 28.943663,15.3958294 C29.4026337,16.7691059 29.4515612,18.247271 29.0838632,19.648495 C28.8510765,20.4467028 28.4344307,21.1784756 27.8670068,21.7840758 C28.2346912,22.2767975 28.5600847,22.8000848 28.8404784,23.3485998 C28.9026418,23.4747688 28.913223,23.6208615 28.8682536,23.7536707 C28.8232843,23.8878091 28.7280534,23.9980425 28.6023994,24.0604623 C28.5296548,24.0963216 28.4489735,24.116242 28.3669682,24.116242 C28.1659252,24.116242 27.982083,24.0020239 27.8934717,23.8214012 C27.6236524,23.2941359 27.3062058,22.7934583 26.9464446,22.3233123 C26.877665,22.2436241 26.7930153,22.145345 26.7903709,22.1400343 C25.7864931,20.985919 24.7045345,19.9008568 23.5525197,18.8941297 C21.8978889,17.3920289 20.4548823,15.6708009 19.2617955,13.7782151 C18.6441235,12.7887597 18.1573878,11.7236213 17.8121863,10.6093535 C17.6084988,9.96390575 17.4233394,9.25732681 17.2328775,8.38608794 C16.6403296,5.64487296 16.0953886,4.63015591 15.9578499,4.4043988 C14.1854882,0.574007726 10.9608085,0.000132947278 9.19129111,0.000132947278 C8.80904691,-0.0022339129 8.42812324,0.0269989137 8.05116117,0.0880893333 C6.13597855,0.242151565 4.67045516,2.25821361 4.39801855,2.65930649 C3.62293201,3.32070004 2.46695734,3.49334984 1.8373667,3.53850126 C1.35723358,3.56506512 0.903578887,3.76560815 0.559697929,4.10428803 C0.140410947,4.57178207 -0.0579741327,5.19730607 0.0147569032,5.82286408 C0.194637514,7.31564901 1.85060592,8.52688354 1.92201641,8.5773729 C1.93524275,8.58667177 1.9484691,8.59596726 1.9616968,8.60393676 C2.49075745,8.91471319 3.40338114,9.19362523 4.67048563,9.43532817 C5.25775142,9.54688747 6.01164169,9.80986733 6.31323503,10.0940698 C8.40567075,12.0755984 6.35555989,15.7145379 6.34762313,15.7277978 C5.62413904,16.8141859 5.51964406,18.2007222 6.06986714,19.3854711 C6.3066222,19.8343673 6.60684762,20.2460681 6.96396778,20.6073474 C7.12268598,20.7786747 7.27346741,20.9579509 7.41366087,21.1438946 C7.69141686,21.5423355 7.89511453,21.9859278 8.01677308,22.4560738 C8.4400216,24.0391616 8.46646617,25.9862487 8.09348603,28.4059978 C7.95857472,28.943871 7.66891698,29.4299627 7.26287266,29.8058279 L7.1755785,29.8828574 C6.54334679,30.4300463 5.58839655,31.2561331 5.74181568,32.3797168 C5.88995266,33.4368992 7.24434792,34 8.16489652,34 C11.2810553,34 12.3763852,31.2534812 12.4105837,31.1604923 C13.0798581,29.6411204 12.5534318,26.6875101 12.4899445,26.3553344 C12.4873,26.3340847 12.4820111,26.3115055 12.4740743,26.2915853 C11.7466287,24.0258201 12.8497159,21.2049102 12.8602802,21.1756706 C12.8655691,21.1623904 12.8708614,21.1491067 12.8735058,21.1358265 C13.0335479,20.705528 12.9793179,20.2260661 12.7280133,19.842245 C12.2703631,19.1702096 11.3074897,19.061309 11.1381903,19.0480492 L9.56688866,18.8541462 C9.31029505,18.8275824 9.25209669,18.7346173 9.23093426,18.6974286 C9.1383478,18.4411025 9.13305889,18.1595555 9.21770859,17.9005468 C9.66476058,17.6415653 10.0337994,17.2670329 10.2890691,16.8168107 C10.3419752,16.7371224 10.3948812,16.6574377 10.4477873,16.585719 C10.6065055,16.3745511 10.8009459,16.1926161 11.0244549,16.0518238 L12.4132519,15.334637 C12.57197,15.2509674 12.6777822,15.0942499 12.6963001,14.9149463 L12.7624319,14.2482489 C15.8177444,15.6002756 15.9632403,19.3084042 15.8733085,20.9128438 C15.8137896,22.7562662 16.6497156,24.5147577 18.1138846,25.6275635 C19.224895,26.4111515 20.3438625,27.7976878 20.3438625,29.1230588 L20.3438625,30.1775894 L18.8810141,30.1775894 C18.8585277,30.1775894 18.8347208,30.1802448 18.8122379,30.1829001 C16.5663796,30.4830517 15.9209088,32.4539702 15.8944641,33.4553593 C15.8918197,33.5987933 15.9460462,33.7355905 16.0465695,33.8378543 C16.1457688,33.9401183 16.2806801,33.9985567 16.4235316,34 L26.917386,34 C27.0060042,34 27.0932983,33.9786329 27.1713352,33.9361335 C29.0680303,32.8975489 29.9726986,31.086018 29.7928349,28.7008795 C29.7835777,28.2294074 29.9700711,27.7764993 30.3086563,27.4497974 C33.6973533,24.509379 34.850604,18.8995867 32.9354382,14.6761606 L32.9352182,14.6760586 Z M1.32126456,5.5784548 C1.10699585,5.5784548 0.913896331,5.44962705 0.831887697,5.25041339 C0.751206372,5.05252572 0.796175681,4.82409284 0.946957116,4.67136679 C1.09906248,4.51996332 1.32656025,4.4748085 1.52362476,4.55582266 C1.72202336,4.63816622 1.85031844,4.83206914 1.85031844,5.04721839 C1.85031844,5.18799699 1.79476792,5.32346486 1.69556863,5.42308358 C1.59636933,5.52270231 1.46145802,5.5784718 1.32124764,5.5784718 L1.32126456,5.5784548 Z M6.87360931,3.71908655 C6.65934059,3.71908655 6.46624107,3.5902588 6.38423243,3.39104515 C6.30355111,3.19315747 6.34852042,2.96472459 6.49930186,2.81199854 C6.65140721,2.66059508 6.87890499,2.61544025 7.0759695,2.69645442 C7.27436809,2.77879796 7.40266318,2.97270088 7.40266318,3.18785014 C7.40266318,3.32862874 7.34711266,3.46409661 7.24791336,3.56371534 C7.14871407,3.66332387 7.01380275,3.71910356 6.87359237,3.71910356 L6.87360931,3.71908655 Z M12.6853194,8.47902575 C12.3017546,8.98769325 11.7290486,9.31973301 11.0981374,9.398068 C10.5743589,9.50298724 10.0320929,9.38213238 9.60088734,9.06604186 C8.49780011,8.16824932 8.82847571,6.38592409 9.12474967,5.40326864 C9.8019473,3.15079741 9.31256705,1.80951454 8.77822764,1.07614392 C8.8999099,1.06817442 9.71729761,1.07614392 10.0188875,1.11333264 C10.0413706,1.12794226 10.0651808,1.1398965 10.0903116,1.15051796 C10.9473729,1.51441532 11.5293565,2.88503981 11.9552462,3.88908099 C12.0557693,4.1307975 12.1536447,4.35657501 12.2435834,4.5531265 C12.8996186,5.95295662 13.4075168,7.39793816 12.6853532,8.47905635 L12.6853194,8.47902575 Z" id="Fill-1" transform="translate(16.929517, 17.000000) scale(-1, 1) translate(-16.929517, -17.000000) "></path></g></g></g></g></g></g></svg>