<svg xmlns="http://www.w3.org/2000/svg" xmlns:xlink="http://www.w3.org/1999/xlink" width="160px" height="34px" viewBox="0 0 160 34"><title>a</title><g id="Pages" stroke="none" stroke-width="1" fill="none" fill-rule="evenodd"><g id="Home-1-2" transform="translate(-515.000000, -4714.000000)" fill="#000000"><g id="Group-22" transform="translate(62.000000, 4649.000000)"><g id="Group-14" transform="translate(0.000000, 44.000000)"><g id="Group-6" transform="translate(15.000000, 20.000000)"><g id="Scuola_Logo_OnlyTop" transform="translate(438.000000, 1.000000)"><path d="M10.9769484,34 C13.4357849,34 15.6311745,33.6548223 17.4753019,32.964467 C19.3194292,32.2741117 20.636663,31.3248731 21.6026345,30.1167513 C22.5686059,28.9086294 23.0076839,27.5279188 23.0076839,25.9746193 C23.0076839,24.1624365 22.4807903,22.6954315 21.5148189,21.6598985 C20.5488474,20.6243655 19.4072448,19.9340102 18.090011,19.5025381 C16.7727772,19.071066 15.0164654,18.7258883 12.9967069,18.3807107 C11.1525796,18.1218274 9.74753019,17.7766497 8.9571899,17.5177665 C8.16684962,17.2588832 7.63995609,16.6548223 7.63995609,15.8781726 C7.63995609,15.1878173 7.99121844,14.6700508 8.86937431,14.2385787 C9.6597146,13.8071066 10.8891328,13.5482234 12.4698134,13.5482234 C15.104281,13.5482234 17.5631175,14.1522843 19.8463227,15.4467005 L22.3051592,10.2690355 C21.1635565,9.5786802 19.6706915,9.06091371 17.9143798,8.62944162 C16.1580681,8.28426396 14.3139407,8.02538071 12.557629,8.02538071 C10.0987925,8.02538071 7.99121844,8.37055838 6.2349067,9.06091371 C4.47859495,9.75126904 2.89791438,10.8730964 1.93194292,12.0812183 C0.96597146,13.2893401 0.526893524,14.7563452 0.526893524,16.3096447 C0.526893524,18.2081218 1.05378705,19.6751269 2.01975851,20.7106599 C2.98572997,21.7461929 4.21514819,22.4365482 5.532382,22.8680203 C6.84961581,23.2994924 8.60592755,23.6446701 10.7135016,23.9035533 C12.4698134,24.1624365 13.7870472,24.4213198 14.6652031,24.680203 C15.5433589,25.0253807 15.9824369,25.5431472 15.9824369,26.2335025 C15.9824369,27.786802 14.4017563,28.4771574 11.3282108,28.4771574 C9.74753019,28.4771574 8.16684962,28.2182741 6.58616905,27.786802 C5.00548847,27.3553299 3.60043908,26.751269 2.45883644,26.0609137 L0,31.2385787 C1.22941822,32.0152284 2.81009879,32.6192893 4.8298573,33.1370558 C6.84961581,33.6548223 8.86937431,34 10.9769484,34 Z M39.4291987,34 C42.1514819,34 44.4346872,33.4822335 46.4544457,32.3604061 C48.4742042,31.2385787 49.9670692,29.6852792 50.845225,27.7005076 L45.1372119,24.5939086 C43.819978,26.9238579 41.8880351,28.0456853 39.4291987,28.0456853 C37.4972558,28.0456853 35.9165752,27.4416244 34.5993414,26.1472081 C33.2821076,24.8527919 32.6673985,23.213198 32.6673985,21.0558376 C32.6673985,18.8984772 33.2821076,17.2588832 34.5993414,15.964467 C35.8287596,14.7563452 37.4972558,14.0659898 39.4291987,14.0659898 C41.8880351,14.0659898 43.819978,15.1878173 45.1372119,17.5177665 L50.845225,14.4974619 C49.9670692,12.4263959 48.4742042,10.8730964 46.4544457,9.75126904 C44.4346872,8.62944162 42.0636663,8.11167513 39.4291987,8.11167513 C36.7069155,8.11167513 34.248079,8.62944162 32.1405049,9.75126904 C30.0329308,10.8730964 28.2766191,12.4263959 27.0472009,14.3248731 C25.8177827,16.2233503 25.2030735,18.4670051 25.2030735,20.9695431 C25.2030735,23.4720812 25.8177827,25.715736 27.0472009,27.6142132 C28.2766191,29.5126904 29.9451153,31.0659898 32.1405049,32.1878173 C34.3358946,33.3096447 36.7069155,34 39.4291987,34 Z M65.5104281,34 C67.0911087,34 68.5839737,33.7411168 69.9012075,33.1370558 C71.2184413,32.5329949 72.4478595,31.7563452 73.413831,30.6345178 L73.413831,33.6548223 L80.4390779,33.6548223 L80.4390779,8.54314721 L73.0625686,8.54314721 L73.0625686,20.9695431 C73.0625686,23.213198 72.5356751,24.8527919 71.481888,26.0609137 C70.428101,27.1827411 69.0230516,27.786802 67.1789243,27.786802 C63.7541164,27.786802 61.9978046,25.8020305 61.9978046,21.7461929 L61.9978046,8.54314721 L54.6212953,8.54314721 L54.6212953,22.6954315 C54.6212953,26.4060914 55.5872667,29.2538071 57.5192097,31.1522843 C59.4511526,33.0507614 62.0856202,34 65.5104281,34 Z M98.9681668,34 C101.69045,34 104.061471,33.4822335 106.169045,32.3604061 C108.276619,31.2385787 109.945115,29.6852792 111.174533,27.786802 C112.403952,25.8020305 113.018661,23.6446701 113.018661,21.142132 C113.018661,18.6395939 112.403952,16.3959391 111.174533,14.4974619 C109.945115,12.5989848 108.276619,11.0456853 106.169045,9.92385787 C104.061471,8.80203046 101.69045,8.28426396 98.9681668,8.28426396 C96.2458836,8.28426396 93.8748628,8.80203046 91.7672887,9.92385787 C89.6597146,11.0456853 87.9912184,12.5989848 86.7618002,14.4974619 C85.532382,16.3959391 84.9176729,18.6395939 84.9176729,21.142132 C84.9176729,23.6446701 85.532382,25.8883249 86.7618002,27.786802 C87.9912184,29.7715736 89.6597146,31.2385787 91.7672887,32.3604061 C93.8748628,33.4822335 96.3336992,34 98.9681668,34 Z M98.9681668,28.0456853 C97.0362239,28.0456853 95.5433589,27.4416244 94.3139407,26.1472081 C93.0845225,24.8527919 92.4698134,23.213198 92.4698134,21.0558376 C92.4698134,18.8984772 93.0845225,17.2588832 94.3139407,15.964467 C95.5433589,14.6700508 97.1240395,14.0659898 98.9681668,14.0659898 C100.812294,14.0659898 102.392975,14.6700508 103.622393,15.964467 C104.851811,17.2588832 105.46652,18.8984772 105.46652,21.0558376 C105.46652,23.213198 104.851811,24.8527919 103.622393,26.1472081 C102.392975,27.4416244 100.90011,28.0456853 98.9681668,28.0456853 Z M145.246981,34 C149.023052,34 151.657519,32.8781726 153.062569,30.5482234 L153.062569,33.6548223 L160,33.6548223 L160,19.3299492 C160,15.6192893 158.946213,12.7715736 156.838639,10.9593909 C154.731065,9.14720812 151.657519,8.19796954 147.705818,8.19796954 C145.686059,8.19796954 143.666301,8.45685279 141.734358,8.97461929 C139.802415,9.49238579 138.133919,10.2690355 136.728869,11.2182741 L139.363337,16.3096447 C140.241493,15.6192893 141.383095,15.0152284 142.700329,14.5837563 C144.017563,14.1522843 145.334797,13.9796954 146.739846,13.9796954 C148.671789,13.9796954 150.164654,14.4111675 151.130626,15.2741117 C152.096597,16.1370558 152.623491,17.3451777 152.623491,18.8984772 L146.739846,18.8984772 C143.051592,18.8984772 140.241493,19.5888325 138.485181,20.8832487 C136.728869,22.177665 135.762898,24.0761421 135.762898,26.4060914 C135.762898,27.8730964 136.11416,29.1675127 136.904501,30.2893401 C137.694841,31.4111675 138.748628,32.3604061 140.241493,32.964467 C141.734358,33.5685279 143.315038,34 145.246981,34 L145.246981,34 Z M147.091109,29.1675127 C145.773875,29.1675127 144.807903,28.9086294 144.017563,28.3908629 C143.315038,27.8730964 142.87596,27.0964467 142.87596,26.1472081 C142.87596,24.1624365 144.368825,23.213198 147.442371,23.213198 L152.535675,23.213198 L152.535675,25.8020305 C152.096597,26.9238579 151.394072,27.786802 150.428101,28.3045685 C149.46213,28.822335 148.320527,29.1675127 147.091109,29.1675127 Z M121.888035,0 L129.791438,0 L122.766191,26.751269 L132.425906,26.751269 L132.425906,33.6548223 L114.862788,33.6548223 L114.862788,26.751269 L121.888035,0 Z" id="a"></path></g></g></g></g></g></g></svg>