<svg xmlns="http://www.w3.org/2000/svg" xmlns:xlink="http://www.w3.org/1999/xlink" width="171px" height="34px" viewBox="0 0 171 34"><title>tecnologia</title><g id="Pages" stroke="none" stroke-width="1" fill="none" fill-rule="evenodd"><g id="Home-1-2" transform="translate(-1166.000000, -4717.000000)" fill="#000000" fill-rule="nonzero"><g id="Group-22" transform="translate(62.000000, 4649.000000)"><g id="Group-14" transform="translate(0.000000, 44.000000)"><g id="Group-6" transform="translate(15.000000, 20.000000)"><g id="tecnologia" transform="translate(1089.000000, 4.000000)"><path d="M7.3641896e-05,8.45474139 L8.44578335,0.000148646736 L19.4273729,0.000148646736 C18.2612866,0.566810359 17.1857701,1.31480382 16.2347871,2.26679549 L2.37760602,16.1386742 C0.831748191,14.2548014 -0.00906034298,11.8900242 7.3641896e-05,9.452066 L7.3641896e-05,8.45474139 L7.3641896e-05,8.45474139 Z M9.37412391,33.9999263 L8.44578335,33.9999263 L0.00014848924,25.5452586 L0.00014848924,14.5520214 C0.566209807,15.7193445 1.31341075,16.7960018 2.26439376,17.7479935 L16.1215748,31.6198722 C14.239698,33.1673696 11.8774264,34.00907 9.44205127,33.9999263 L9.37412391,33.9999263 Z M33.9639024,25.5452586 L25.5181927,33.9998514 L14.5366031,33.9998514 C15.7026894,33.4331896 16.778206,32.6851962 17.729189,31.7332045 L31.58637,17.8613258 C33.1322279,19.7451986 33.9730364,22.1099758 33.9639024,24.547934 L33.9639024,25.5452586 L33.9639024,25.5452586 Z M31.6995823,16.2520065 L17.8424012,2.38012784 C19.7242781,0.832630386 22.0865497,-0.00906995285 24.5219248,7.37200043e-05 L25.5181927,7.37200043e-05 L33.9638276,8.45474139 L33.9638276,19.4479786 C33.3935975,18.2629983 32.6281522,17.1825756 31.6995823,16.2520065 Z" id="Shape"></path><g id="Group" transform="translate(44.628423, 6.901698)"><path d="M0,4.20501984 L0,1.03171426 L14.8874127,1.03171426 L14.8874127,4.20501984 L9.34001175,4.20501984 L9.34001175,19.164889 L5.55872214,19.164889 L5.55872214,4.20501984 L0,4.20501984 Z M22.6537739,19.4368867 C21.2612631,19.4368867 20.0498919,19.1535558 19.0423027,18.5755609 C18.039181,18.0200128 17.2264867,17.1748621 16.7101301,16.1502487 C16.1466004,14.9861146 15.8709178,13.703414 15.906323,12.4102814 C15.906323,11.0276269 16.1780325,9.80363756 16.7101301,8.73831354 C17.2214448,7.7132834 18.0149423,6.85602631 18.9970178,6.26766848 C19.9819645,5.67834029 21.1480508,5.3836762 22.4726343,5.3836762 C23.3783324,5.3836762 24.2161032,5.53100825 24.9859466,5.81433911 C26.575665,6.40061827 27.8237719,7.66250181 28.3936357,9.25964231 C28.7219513,10.1209681 28.8804484,11.1409592 28.8804484,12.2969491 L28.8804484,13.3169402 L17.4120461,13.3169402 L17.4120461,11.0049604 L27.0690522,11.0049604 L25.3142621,11.616955 C25.3142621,10.9256277 25.2123711,10.3249663 24.9972678,9.80363756 C24.7934857,9.30497525 24.4764914,8.89697882 24.057606,8.6249812 C23.5946467,8.331892 23.054005,8.18572439 22.506598,8.20565153 C21.8952518,8.20565153 21.3744754,8.35298357 20.9442688,8.63631443 C20.5253834,8.91964529 20.1970678,9.30497525 19.9706433,9.79230432 C19.7442188,10.2796334 19.6310065,10.8349619 19.6310065,11.469623 L19.6310065,13.112942 C19.6310065,13.8496022 19.75554,14.4729301 20.0159282,15.0055921 C20.5043074,16.0413303 21.5675679,16.6808577 22.7103801,16.6262446 C23.1405867,16.6262446 23.5141871,16.5695784 23.8538239,16.4449128 C24.1934607,16.3315805 24.4878126,16.1502487 24.7368796,15.9122508 C24.9859466,15.6855861 25.1670862,15.390922 25.3029409,15.0622582 L28.7672362,15.2889229 C28.6102831,16.0988444 28.2432719,16.8531879 27.7030409,17.4762371 C27.1709433,18.099565 26.4690272,18.5868941 25.6199352,18.9268911 C24.7708433,19.2668881 23.7858966,19.4482199 22.6764164,19.4482199 L22.6537739,19.4368867 Z M36.6015248,19.4368867 C35.3486189,19.468012 34.1111986,19.1544087 33.0240173,18.5302279 C32.0385602,17.9476052 31.2408976,17.094027 30.7258083,16.0709161 C30.1753239,14.9349425 29.9036347,13.6838465 29.9333225,12.4216147 C29.9333225,11.0276269 30.1937107,9.80363756 30.7371296,8.73831354 C31.2529684,7.70911704 32.0550029,6.85113184 33.0466597,6.26766848 C34.1296875,5.65593917 35.3584386,5.35038426 36.6015248,5.3836762 C37.7902536,5.3836762 38.8204852,5.59900766 39.7148621,6.02967056 C40.5979177,6.46033346 41.2998338,7.06099487 41.8206102,7.84298803 C42.3413866,8.6249812 42.6244172,9.54297317 42.6697021,10.596964 L39.1261583,10.596964 C39.0721589,10.1715645 38.9294456,9.76227633 38.7072729,9.39564112 C38.5034908,9.0556441 38.2204602,8.79497971 37.8695022,8.60231473 C37.5298654,8.42098298 37.11098,8.33031711 36.6581309,8.33031711 C36.0694272,8.33031711 35.559972,8.48898239 35.1297654,8.79497971 C34.6882376,9.11231027 34.359922,9.56563964 34.110855,10.1776343 C33.8572354,10.8820162 33.738181,11.6278562 33.759897,12.3762817 C33.759897,13.2262743 33.8731093,13.9629345 34.1221762,14.5862624 C34.3486008,15.2095903 34.6882376,15.6742529 35.1297654,16.0029167 C35.559972,16.3202472 36.0694272,16.4902458 36.6581309,16.4902458 C37.3034409,16.4902458 37.8468597,16.2862475 38.2997088,15.8669179 C38.7412366,15.4589214 39.012946,14.8922597 39.1261583,14.1669327 L42.6697021,14.1669327 C42.613096,15.2095903 42.3300654,16.1275823 41.8319314,16.9209087 C41.3244495,17.7159211 40.6075008,18.3551921 39.760147,18.7682258 C38.8657701,19.2215552 37.8242173,19.4368867 36.6015248,19.4368867 L36.6015248,19.4368867 Z M48.0586059,11.2996245 L48.0586059,19.164889 L44.2999587,19.164889 L44.2999587,5.55367472 L48.0019998,5.55367472 L48.0019998,7.97898684 L48.1378545,7.97898684 C48.4435276,7.17432721 48.9303403,6.5396661 49.6096139,6.07500349 C50.2888875,5.62167412 51.1266582,5.3836762 52.1342474,5.3836762 C53.0739092,5.3836762 53.9003587,5.58767442 54.6022747,6.00700409 C55.3041908,6.41500052 55.8476096,7.0043287 56.2325313,7.77498863 C56.617453,8.53431532 56.8212351,9.44097406 56.8212351,10.5062981 L56.8212351,19.164889 L53.0625879,19.164889 L53.0625879,11.1749589 C53.0625879,10.3476328 52.8361634,9.70163845 52.417278,9.22564261 C51.9594634,8.73617548 51.3086549,8.47474602 50.6398455,8.51164885 C50.1417115,8.51164885 49.6888625,8.6249812 49.3039408,8.85164588 C48.9076979,9.07831057 48.613346,9.38430789 48.3982427,9.80363756 C48.1718182,10.211634 48.0586059,10.7102963 48.0586059,11.2996245 L48.0586059,11.2996245 Z M65.1423365,19.4368867 C63.8994977,19.4679111 62.6713404,19.1625039 61.5874714,18.5528944 C60.5957994,17.9745214 59.7934156,17.1201 59.2779412,16.0935826 C58.7200111,14.9517332 58.4443369,13.6923927 58.4741341,12.4216147 C58.4741341,11.0049604 58.7458436,9.78097109 59.2779412,8.7269803 C59.7934156,7.70046284 60.5957994,6.84604145 61.5874714,6.26766848 C62.6713404,5.65805898 63.8994977,5.35265172 65.1423365,5.3836762 C66.5235261,5.3836762 67.7122549,5.67834029 68.719844,6.26766848 C69.711516,6.84604145 70.5138998,7.70046284 71.0293742,8.7269803 C71.5614718,9.78097109 71.8331812,11.0049604 71.8331812,12.4216147 C71.8629785,13.6923927 71.5873043,14.9517332 71.0293742,16.0935826 C70.5138998,17.1201 69.711516,17.9745214 68.719844,18.5528944 C67.7122549,19.1422226 66.5235261,19.4368867 65.1423365,19.4368867 L65.1423365,19.4368867 Z M65.1763001,16.4902458 C65.7989676,16.4902458 66.319744,16.308914 66.7386294,15.9575837 C67.1575148,15.6062535 67.4858303,15.1189244 67.7009336,14.5069298 C67.9160369,13.8836019 68.017928,13.1809414 68.017928,12.3989482 C68.017928,11.6056218 67.9047157,10.9029613 67.7009336,10.2909666 C67.5186156,9.73167276 67.1856192,9.23360935 66.7386294,8.85164588 C66.2965265,8.49709355 65.7424885,8.31221834 65.1763001,8.33031711 C64.5423115,8.33031711 64.0102138,8.50031562 63.5913285,8.85164588 C63.1611219,9.19164291 62.8441275,9.67897198 62.6290242,10.2909666 C62.4009073,10.9698911 62.2898835,11.6827298 62.3007087,12.3989482 C62.3007087,13.1922746 62.4139209,13.8836019 62.6290242,14.5069298 C62.8441275,15.1189244 63.1611219,15.6062535 63.5800072,15.9575837 C64.0102138,16.308914 64.5423115,16.4902458 65.1649789,16.4902458 L65.1763001,16.4902458 Z M77.2673699,1.03171426 L77.2673699,19.164889 L73.5087227,19.164889 L73.5087227,1.03171426 L77.2673699,1.03171426 Z M85.5884713,19.4368867 C84.3456325,19.4679111 83.1174752,19.1625039 82.0336062,18.5528944 C81.0419342,17.9745214 80.2395504,17.1201 79.724076,16.0935826 C79.1622354,14.9527086 78.882668,13.6933207 78.9089477,12.4216147 C78.9089477,11.0049604 79.1806572,9.78097109 79.724076,8.7269803 C80.2395504,7.70046284 81.0419342,6.84604145 82.0336062,6.26766848 C83.1174752,5.65805898 84.3456325,5.35265172 85.5884713,5.3836762 C86.9696609,5.3836762 88.1583897,5.67834029 89.1659788,6.26766848 C90.1576508,6.84604145 90.9600346,7.70046284 91.475509,8.7269803 C92.0076066,9.78097109 92.279316,11.0049604 92.279316,12.4216147 C92.3091133,13.6923927 92.0334391,14.9517332 91.475509,16.0935826 C90.9600346,17.1201 90.1576508,17.9745214 89.1659788,18.5528944 C88.1583897,19.1422226 86.9696609,19.4368867 85.5884713,19.4368867 L85.5884713,19.4368867 Z M85.6111137,16.4902458 C86.2451024,16.4902458 86.7658788,16.308914 87.1847642,15.9575837 C87.6036496,15.6062535 87.9206439,15.1189244 88.1357472,14.5069298 C88.3621717,13.8836019 88.4640628,13.1809414 88.4640628,12.3989482 C88.4640628,11.6056218 88.3508505,10.9029613 88.1357472,10.2909666 C87.9565873,9.73297704 87.6275994,9.23505108 87.1847642,8.85164588 C86.7396738,8.49451481 86.1811531,8.30948459 85.6111137,8.33031711 C84.9884463,8.33031711 84.4563486,8.50031562 84.026142,8.85164588 C83.6072567,9.19164291 83.2789411,9.67897198 83.0638378,10.2909666 C82.8395636,10.9705571 82.7323707,11.6833792 82.7468435,12.3989482 C82.7468435,13.1922746 82.8600557,13.8836019 83.0638378,14.5069298 C83.2902623,15.1189244 83.6072567,15.6062535 84.026142,15.9575837 C84.4563486,16.308914 84.9884463,16.4902458 85.6111137,16.4902458 L85.6111137,16.4902458 Z M100.023035,24.5481753 C98.5116955,24.6335801 97.0104463,24.2539149 95.7209689,23.4601848 C94.753702,22.8398506 94.0701717,21.8623431 93.8190028,20.7402086 L97.3059406,20.2868792 C97.5528439,20.9163945 98.0676537,21.4026576 98.7097726,21.6128676 C99.0946943,21.7601997 99.5588646,21.8395323 100.113605,21.8395323 C100.928733,21.8395323 101.608007,21.6355341 102.151425,21.2388709 C102.683523,20.8422077 102.943911,20.1848801 102.943911,19.2555549 L102.943911,16.7622434 L102.785414,16.7622434 C102.392955,17.6370898 101.667381,18.3185469 100.770236,18.6548935 C100.249459,18.8702249 99.6381132,18.9722241 98.9135547,18.9722241 C96.8844538,19.0496957 95.0047688,17.9082034 94.1359972,16.0709161 C93.5982766,14.9038965 93.3423166,13.6266211 93.3887962,12.342282 C93.3887962,10.8009622 93.6378632,9.50897347 94.1473184,8.47764915 C95.262727,5.90169269 98.2350168,4.69638639 100.826842,5.76900617 C101.336297,6.01833732 101.755183,6.33566788 102.072177,6.72099784 C102.411814,7.10632781 102.649559,7.48032454 102.808057,7.85432127 L102.955233,7.85432127 L102.955233,5.56500795 L106.668595,5.56500795 L106.668595,19.3235543 C106.668595,20.4795442 106.385564,21.4428691 105.819503,22.2248623 C105.253441,22.9955222 104.460956,23.5848504 103.464688,23.9701804 C102.46842,24.3668435 101.313655,24.5595085 100.023035,24.5595085 L100.023035,24.5481753 Z M100.102283,16.1389155 C101.007982,16.1389155 101.709898,15.7989185 102.208032,15.1189244 C102.706166,14.4389304 102.955233,13.5209384 102.955233,12.3196156 C102.955233,11.5262892 102.84202,10.8462951 102.615596,10.2456337 C102.400492,9.65630551 102.083498,9.20297614 101.653291,8.87431235 C101.20799,8.53634162 100.660893,8.36044543 100.102283,8.37565004 C99.479616,8.37565004 98.9701608,8.54564856 98.5399542,8.88564558 C98.1097476,9.22564261 97.7927533,9.67897198 97.5663288,10.2796334 C97.3512255,10.8689616 97.2380132,11.5489556 97.2380132,12.3196156 C97.2252617,13.0147087 97.340391,13.7062172 97.57765,14.3595977 C97.7927533,14.9262594 98.1097476,15.3569223 98.5399542,15.6742529 C98.9588396,15.9802502 99.479616,16.1275823 100.102283,16.1275823 L100.102283,16.1389155 Z M108.887555,19.164889 L108.887555,5.55367472 L112.634881,5.55367472 L112.634881,19.164889 L108.876234,19.164889 L108.887555,19.164889 Z M110.755557,3.80835665 C110.189496,3.80835665 109.714005,3.6270249 109.317762,3.25302817 C108.930327,2.90816607 108.711417,2.41199487 108.717737,1.89304006 C108.717737,1.37171129 108.921519,0.92971515 109.317762,0.555718421 C109.705933,0.189337082 110.222154,-0.0100458027 110.755557,0.000389942961 C111.321619,0.000389942961 111.808432,0.181721691 112.204674,0.567051655 C112.600917,0.92971515 112.793378,1.37171129 112.793378,1.90437329 C112.793378,2.42570207 112.600917,2.87903144 112.204674,3.25302817 C111.808432,3.6270249 111.321619,3.81968988 110.755557,3.81968988 L110.755557,3.80835665 Z M118.71438,19.4255534 C117.921312,19.4380901 117.134464,19.2836426 116.404849,18.9722241 C115.742173,18.6900464 115.178539,18.2165655 114.785914,17.6122359 C114.378406,16.9368511 114.177665,16.1566748 114.208532,15.3682556 C114.106131,14.1180229 114.697435,12.9123976 115.748218,12.2289497 C116.235031,11.9116191 116.767129,11.662288 117.378475,11.5036227 C117.989821,11.3449574 118.62381,11.2316251 119.314405,11.1636257 C120.10689,11.0956263 120.729558,11.0162936 121.216371,10.936961 C121.691862,10.8689616 122.04282,10.7669625 122.269245,10.6082972 C122.495669,10.4609651 122.608881,10.2456337 122.608881,9.96230284 L122.608881,9.90563666 C122.608881,9.33897495 122.427742,8.90831205 122.065463,8.60231473 C121.725826,8.28498417 121.216371,8.13765212 120.582382,8.13765212 C119.903108,8.13765212 119.371011,8.28498417 118.963447,8.57964826 C118.567204,8.87431235 118.306815,9.25964231 118.170961,9.71297168 L114.684023,9.42964083 C115.011499,7.79009877 116.170505,6.44078768 117.740754,5.87100528 C119.356301,5.29573104 121.106707,5.2168003 122.767379,5.64434059 C123.457973,5.82567234 124.06932,6.09766996 124.612739,6.47166669 C125.766095,7.25942965 126.43,8.58864806 126.367529,9.9849693 L126.367529,19.164889 L122.7787,19.164889 L122.7787,17.2609057 L122.68813,17.2609057 C122.236822,18.1568161 121.445792,18.8343946 120.491812,19.1422226 C119.982357,19.3348875 119.393653,19.4255534 118.71438,19.4255534 L118.71438,19.4255534 Z M119.801217,16.8189095 C120.355957,16.8189095 120.84277,16.7055772 121.272977,16.4789125 C121.691862,16.2522478 122.020178,15.9575837 122.269245,15.5722538 C122.495669,15.1982571 122.620203,14.7789274 122.620203,14.3029315 L122.620203,12.8636108 C122.50699,12.9316102 122.348493,12.9996096 122.144711,13.067609 C121.940929,13.1356084 121.703183,13.1809414 121.465438,13.2376075 C120.986051,13.3349476 120.50252,13.4105794 120.016321,13.4642722 C119.574793,13.5322716 119.189871,13.6342707 118.850234,13.7816028 C118.510598,13.9176016 118.261531,14.1102666 118.080391,14.3482645 C117.899251,14.5862624 117.808681,14.8922597 117.808681,15.2549232 C117.808681,15.7535855 117.989821,16.1502487 118.374743,16.4109131 C118.737022,16.6829107 119.212514,16.8189095 119.801217,16.8189095 L119.801217,16.8189095 Z" id="Shape"></path></g></g></g></g></g></g></g></svg>