<svg height="41" viewBox="0 0 1281 41" width="1281" xmlns="http://www.w3.org/2000/svg"><path d="m681.26 0c16.95 0 33.1 7.17 44.46 19.71l.4.46c11.1958 12.6130166 27.254825 19.8308421 44.12 19.83h510.76v1h-510.76c-16.937962.0011746-33.087086-7.1580522-44.46-19.71l-.4-.46c-11.1958-12.61301661-27.254825-19.83084209-44.12-19.83h-88.86c-16.41473-.0012407-32.037784 7.05444958-42.89 19.37l-.4.46c-11.041724 12.7995683-27.105901 20.16186-44.01 20.17h-505.1v-1h505.09c16.41473.0012407 32.037784-7.0544496 42.89-19.37l.4-.46c11.044006-12.80221079 27.112409-20.16476637 44.02-20.17z" opacity=".1"/></svg>