<svg xmlns="http://www.w3.org/2000/svg" height="30" viewBox="0 0 73 30" width="73"><g fill="none" fill-rule="evenodd" opacity=".7"><path d="M.86.79h71.16V29.2H.86z"></path><path d="M16.1 20.84v4.63h-1.5V14.06h3.93c1.01 0 1.85.33 2.55 1a3.15 3.15 0 0 1 1.07 2.4c0 .98-.36 1.76-1.07 2.43a3.6 3.6 0 0 1-2.55.97H16.1zm0-5.4v4h2.47a2 2 0 0 0 1.48-.59c.4-.4.59-.85.59-1.41 0-.54-.2-1-.6-1.4-.37-.39-.88-.6-1.47-.6zm10.03 1.96c1.1 0 1.95.29 2.6.87.64.58.95 1.37.95 2.39v4.81h-1.43V24.4h-.04a2.83 2.83 0 0 1-2.46 1.33 3.2 3.2 0 0 1-2.19-.77 2.43 2.43 0 0 1-.88-1.9c0-.81.31-1.46.92-1.94s1.45-.72 2.49-.72c.88 0 1.62.16 2.18.47v-.33c0-.52-.2-.93-.6-1.3-.4-.36-.89-.55-1.44-.55-.82 0-1.5.36-1.97 1.04l-1.3-.8c.7-1 1.76-1.52 3.17-1.52zm-1.92 5.67c0 .37.17.7.49.95.33.25.71.37 1.15.37.64 0 1.18-.22 1.67-.68.48-.46.73-1 .73-1.62a3.14 3.14 0 0 0-1.93-.54c-.61 0-1.12.15-1.52.44-.38.3-.59.66-.59 1.08zm7.16-5.42h1.43v1.26h.06c.44-1 1.35-1.5 2.74-1.5l.31.05V19l-.65-.07c-.7 0-1.26.21-1.7.63-.45.41-.68.95-.68 1.6v4.3h-1.51zm9.28 7.95c-.66 0-1.18-.19-1.6-.58-.42-.4-.66-.94-.66-1.64v-4.36h-1.38v-1.33h1.38v-2.43h1.5v2.39h1.93v1.33H39.9v3.88c0 .52.1.87.31 1.06.21.18.45.27.7.27.13 0 .23-.02.36-.05.1-.02.2-.06.31-.1l.47 1.3c-.43.18-.89.26-1.4.26zm2.65-7.95h1.43v1.08h.06a3.02 3.02 0 0 1 2.5-1.33c.97 0 1.71.27 2.24.83.52.54.77 1.33.77 2.32v4.9h-1.47v-4.8c-.04-1.26-.7-1.9-1.96-1.9-.58 0-1.09.23-1.49.7-.4.48-.59 1.04-.59 1.7v4.32h-1.5zm12.3 8.07c-1.15 0-2.12-.4-2.88-1.18a4.14 4.14 0 0 1-1.13-2.99c0-1.18.36-2.18 1.1-2.97a3.67 3.67 0 0 1 2.81-1.18c1.18 0 2.1.37 2.8 1.12.7.75 1.05 1.8 1.05 3.15l-.02.17H53.1c.02.77.28 1.4.78 1.85.5.48 1.1.7 1.77.7.95 0 1.68-.47 2.23-1.4l1.32.64a4 4 0 0 1-3.6 2.1zm-2.37-5.1h4.54c-.04-.54-.27-1-.67-1.35s-.95-.54-1.62-.54a2.1 2.1 0 0 0-1.45.52c-.4.33-.65.78-.8 1.37zm8.98 4.85h-1.49v-7.82h1.43v1.26h.06c.15-.41.47-.76.93-1.06.46-.29.93-.43 1.39-.43.42 0 .8.06 1.1.19l-.45 1.4c-.19-.08-.48-.1-.86-.1a1.9 1.9 0 0 0-1.45.67c-.43.45-.64.97-.64 1.55v4.34z" fill="#000" fill-rule="nonzero"></path><path d="M24.17 7.58c-.38 0-.7.14-.95.41-.25.27-.37.6-.37 1.02 0 .4.12.75.37 1.02.26.27.57.41.95.41s.7-.14.95-.41c.27-.27.4-.62.4-1.02 0-.41-.13-.75-.38-1.02a1.33 1.33 0 0 0-.97-.41zm10.4 0c-.36 0-.68.14-.95.41-.25.27-.38.6-.38 1.02 0 .4.13.73.38 1s.57.41.95.41c.35 0 .65-.12.9-.4.25-.26.38-.61.38-1s-.13-.76-.38-1.03a1.2 1.2 0 0 0-.9-.41zm-5.2 0c-.38 0-.7.14-.95.41-.25.27-.38.6-.38 1.02 0 .4.13.75.38 1.02s.57.41.95.41.7-.14.95-.41c.27-.27.4-.62.4-1.02 0-.41-.13-.75-.38-1.02a1.33 1.33 0 0 0-.97-.41zm12.48.12a1.19 1.19 0 0 0-.55-.14c-.32 0-.61.12-.89.4-.25.24-.37.57-.35.97l2.12-.87a.77.77 0 0 0-.33-.36z"></path><g fill-rule="nonzero"><path d="M17.96 7.4v.99h2.42a2.12 2.12 0 0 1-.8 1.47c-.44.35-.98.52-1.62.52-.73 0-1.36-.25-1.87-.77s-.76-1.14-.76-1.87c0-.74.26-1.37.76-1.86.5-.52 1.14-.77 1.87-.77.7 0 1.3.23 1.81.7l.72-.7c-.72-.67-1.56-1-2.53-1a3.77 3.77 0 0 0-3.76 3.65 3.54 3.54 0 0 0 1.9 3.13c.58.34 1.21.5 1.86.5 1 0 1.83-.3 2.49-.93.65-.6.96-1.4.96-2.43 0-.22-.02-.43-.06-.62h-3.39zM24.17 6.66c-.67 0-1.24.23-1.7.69-.47.44-.7 1-.7 1.66s.23 1.23.7 1.66c.46.46 1.03.69 1.68.69.67 0 1.24-.23 1.68-.69.47-.46.7-1.02.7-1.66a2.2 2.2 0 0 0-.7-1.66 2.17 2.17 0 0 0-1.66-.69zm.95 3.37c-.25.27-.57.41-.95.41s-.7-.14-.95-.41c-.25-.27-.37-.6-.37-1.02s.12-.75.37-1.02c.26-.27.57-.41.95-.41s.7.14.95.41c.25.27.38.6.38 1.02.02.4-.13.73-.38 1.02zM37.47 4.32h1.05v6.9h-1.05zM29.37 6.66c-.68 0-1.24.23-1.7.69-.47.44-.7 1-.7 1.66s.23 1.23.7 1.66c.46.46 1.02.69 1.68.69.67 0 1.24-.23 1.68-.69.46-.46.7-1.02.7-1.66a2.2 2.2 0 0 0-.7-1.66 2.17 2.17 0 0 0-1.66-.69zm.95 3.37c-.26.27-.57.41-.95.41s-.7-.14-.95-.41-.38-.6-.38-1.02.13-.75.38-1.02.57-.41.95-.41.7.14.95.41c.25.27.37.6.37 1.02.02.4-.1.73-.37 1.02zM41.38 10.42c-.52 0-.9-.23-1.15-.7L43.4 8.4l-.1-.27a2.5 2.5 0 0 0-.8-1.08 2.48 2.48 0 0 0-.57-.31 2.4 2.4 0 0 0-.67-.1c-.63 0-1.18.22-1.6.66-.42.45-.63 1.02-.63 1.68s.23 1.22.67 1.66c.44.46 1 .69 1.68.69.84 0 1.5-.36 1.98-1.04l-.82-.54c-.27.45-.67.66-1.16.66zm-.97-2.47c.28-.27.57-.4.89-.4.2 0 .38.05.55.15.16.09.27.21.33.36l-2.12.87c-.02-.4.1-.7.35-.98zM35.76 7.18h-.04c-.3-.35-.71-.52-1.26-.52-.61 0-1.16.23-1.6.69-.44.46-.67 1.02-.67 1.66s.23 1.18.67 1.66c.46.46.99.69 1.6.69.53 0 .95-.19 1.26-.54h.04v.25c0 .97-.42 1.47-1.26 1.47-.27 0-.5-.08-.71-.23a1.38 1.38 0 0 1-.49-.6l-.9.37c.08.21.2.4.33.56.15.17.3.32.49.44s.38.2.59.29c.2.06.44.1.7.1.7 0 1.25-.2 1.65-.64.4-.41.6-1.02.6-1.8V6.8h-1zm-.29 2.85a1.25 1.25 0 0 1-1.85-.02c-.25-.27-.38-.6-.38-1s.13-.75.38-1.02c.27-.27.57-.41.95-.41.35 0 .65.14.9.41.25.27.38.63.38 1.02-.02.42-.15.75-.38 1.02zM.86.79h7.57V29.2H.86z" fill="#000"></path><path d="M2.94 26.7v-1.16a1.06 1.06 0 0 1 .5-.93c.17-.11.34-.15.53-.15a1.03 1.03 0 0 1 .93.54c.08.16.12.35.12.54v.64h1.33v.52zm1.58-1.16c0-.13-.02-.21-.09-.3-.04-.08-.12-.14-.2-.18S4.05 25 3.96 25s-.17.02-.25.06-.15.1-.19.19a.67.67 0 0 0-.08.29v.64h1.07zm-1.58-2.47v-1.19c0-.2.04-.37.13-.54s.2-.29.38-.4c.16-.1.33-.14.52-.14.23 0 .42.06.61.21.17.15.3.33.36.54h.02l1.35-.91h.02v.6l-1.33.9v.39h1.33v.51H2.94zm1.58-1.17c0-.16-.04-.29-.15-.4s-.23-.16-.38-.16a.57.57 0 0 0-.46.25.67.67 0 0 0-.08.3v.66h1.07zm-1.58-2.07v-2.04h.5v1.52h.95v-1.37h.5v1.37h.95v-1.52h.5v2.04zm0-3.53v-.7l2.59-.96v-.02l-2.59-1v-.7h3.4v.51H4.47l-.61-.02v.02l2.52.96v.41l-2.52.96v.02l.6-.02h1.9v.52h-3.4zm0-5v-.52h3.4v.51zm0-2.12V7.14h.5v1.52h.95V7.29h.5v1.37h.95V7.14h.5v2.04zm0-3.47V4.53a1.06 1.06 0 0 1 .5-.93c.17-.11.34-.15.53-.15.23 0 .42.06.61.2.17.15.3.34.36.54h.02l1.35-.9h.02v.61L5 4.8v.4h1.33v.51zm1.58-1.16c0-.17-.04-.3-.15-.4a.53.53 0 0 0-.63-.1.6.6 0 0 0-.21.19.67.67 0 0 0-.08.29v.66h1.07z" fill="#fff"></path></g></g></svg>