<svg xmlns="http://www.w3.org/2000/svg" width="161" height="37" viewBox="0 0 161 37"><g fill="#000" fill-rule="nonzero"><path d="M12.38 1.41a18.3 18.3 0 0 0-10.36 8.91 17.71 17.71 0 0 0 4.96 22.12 18.36 18.36 0 0 0 6.64 3.3c3.05.8 6.3.78 9.37.09 2.77-.63 5.4-1.93 7.5-3.82 2.2-2 3.79-4.62 4.62-7.45a20.7 20.7 0 0 0 .47-9.54H18.36v7h9.98a8.44 8.44 0 0 1-3.66 5.56 10.6 10.6 0 0 1-4.03 1.56 10.94 10.94 0 0 1-8.44-1.74A11.12 11.12 0 0 1 8 21.9a10.7 10.7 0 0 1 0-7 11.18 11.18 0 0 1 8.13-7.21c1.77-.37 3.64-.3 5.37.2a9.9 9.9 0 0 1 3.95 2.29l3.36-3.3c.59-.6 1.21-1.16 1.78-1.77a17.9 17.9 0 0 0-5.9-3.58 18.8 18.8 0 0 0-12.32-.12Z"></path><path d="M12.38 1.41a18.86 18.86 0 0 1 12.33.1c2.18.8 4.18 2.04 5.89 3.59-.57.6-1.19 1.18-1.78 1.77l-3.36 3.3a10 10 0 0 0-3.95-2.28 11 11 0 0 0-10.84 2.77 11.1 11.1 0 0 0-2.65 4.24l-6-4.57a18.28 18.28 0 0 1 10.36-8.92Z"></path><path d="M.43 14.83c.33-1.56.86-3.09 1.6-4.52l6 4.57a10.64 10.64 0 0 0 0 6.98l-6 4.57a17.56 17.56 0 0 1-1.6-11.6ZM18.36 15.01h17.22c.57 3.16.44 6.45-.47 9.54A16.26 16.26 0 0 1 30.48 32l-5.81-4.43a8.44 8.44 0 0 0 3.66-5.55h-9.98l.01-7Z"></path><path d="M2.02 26.44 8 21.87a11.18 11.18 0 0 0 8.26 7.24c1.43.3 2.92.25 4.37.01a10.6 10.6 0 0 0 4.03-1.56l5.81 4.43c-2.1 1.9-4.72 3.2-7.5 3.82-3.06.69-6.3.7-9.36-.1a18.21 18.21 0 0 1-11.6-9.27ZM47.26 12.02c1.37 0 2.51.34 3.42 1.02.9.67 1.49 1.59 1.74 2.74h-2.36a2.69 2.69 0 0 0-1.07-1.22 3.17 3.17 0 0 0-1.72-.46c-.65 0-1.22.15-1.73.45-.5.3-.89.72-1.16 1.28-.28.55-.42 1.2-.42 1.95 0 1.18.32 2.1.95 2.77.64.66 1.5 1 2.6 1 .81 0 1.5-.25 2.09-.73.58-.48.96-1.15 1.13-2H46.9V17.2h5.72v2.18a5.32 5.32 0 0 1-.94 2.06 5.03 5.03 0 0 1-1.82 1.52c-.76.38-1.62.56-2.59.56a5.8 5.8 0 0 1-2.93-.72 5.01 5.01 0 0 1-1.97-2.04 6.24 6.24 0 0 1-.7-2.98c0-1.12.23-2.11.7-2.98a5.08 5.08 0 0 1 1.96-2.04c.84-.5 1.82-.74 2.93-.74Zm10.99 2.43c.86 0 1.64.18 2.33.55.68.36 1.23.88 1.62 1.57.4.7.6 1.5.6 2.43 0 .92-.2 1.73-.6 2.41-.4.69-.94 1.21-1.62 1.58-.7.37-1.47.55-2.33.55-.87 0-1.64-.18-2.33-.55a4.05 4.05 0 0 1-1.62-1.58c-.4-.68-.6-1.49-.6-2.41 0-.93.2-1.74.6-2.43.4-.69.93-1.21 1.62-1.57a4.92 4.92 0 0 1 2.33-.55Zm0 1.95c-.63 0-1.16.23-1.6.67-.44.44-.66 1.08-.66 1.93 0 .84.22 1.48.66 1.92.44.45.97.67 1.6.67.63 0 1.16-.22 1.6-.67.44-.44.65-1.08.65-1.92 0-.85-.21-1.49-.65-1.93a2.16 2.16 0 0 0-1.6-.67Zm10.08-1.95c.86 0 1.64.18 2.33.55.68.36 1.23.88 1.62 1.57.4.7.6 1.5.6 2.43 0 .92-.2 1.73-.6 2.41-.4.69-.94 1.21-1.62 1.58-.7.37-1.47.55-2.33.55-.87 0-1.64-.18-2.33-.55a4.05 4.05 0 0 1-1.62-1.58c-.4-.68-.6-1.49-.6-2.41 0-.93.2-1.74.6-2.43.4-.69.93-1.21 1.62-1.57a4.92 4.92 0 0 1 2.33-.55Zm0 1.95c-.63 0-1.16.23-1.6.67-.44.44-.66 1.08-.66 1.93 0 .84.22 1.48.66 1.92.44.45.97.67 1.6.67.63 0 1.16-.22 1.6-.67.44-.44.65-1.08.65-1.92 0-.85-.21-1.49-.65-1.93a2.16 2.16 0 0 0-1.6-.67Zm9.45-1.95c.75 0 1.4.18 1.92.53.54.35.92.83 1.14 1.42v-1.84h2.24v8.9c0 .82-.16 1.56-.49 2.22a3.6 3.6 0 0 1-1.45 1.54 4.6 4.6 0 0 1-2.35.56c-1.28 0-2.31-.3-3.1-.91a3.77 3.77 0 0 1-1.44-2.48h2.22c.13.45.38.8.75 1.05.36.25.84.37 1.41.37.66 0 1.2-.2 1.6-.58.4-.4.61-.98.61-1.77v-1.89c-.22.6-.6 1.08-1.14 1.43-.53.36-1.17.54-1.92.54a3.68 3.68 0 0 1-3.42-2.12c-.33-.69-.5-1.5-.5-2.42 0-.93.17-1.74.5-2.43a3.68 3.68 0 0 1 3.42-2.12Zm.7 1.97c-.7 0-1.26.23-1.69.69a2.66 2.66 0 0 0-.64 1.89c0 .8.22 1.42.64 1.88.43.45 1 .68 1.7.68.68 0 1.24-.24 1.69-.7.44-.46.66-1.08.66-1.86 0-.8-.22-1.42-.66-1.88-.45-.47-1-.7-1.7-.7Zm8.74-4.83v11.84h-2.25V11.59h2.25Zm10.23 7.07c0 .22-.03.48-.08.77h-6.5c.03.79.25 1.37.64 1.74.4.38.89.56 1.47.56.53 0 .96-.13 1.3-.38.35-.26.58-.6.67-1.04h2.39a3.81 3.81 0 0 1-2.24 2.81c-.6.28-1.27.42-2 .42-.87 0-1.64-.18-2.3-.55-.68-.37-1.2-.9-1.58-1.58a4.96 4.96 0 0 1-.56-2.41 5 5 0 0 1 .56-2.43c.38-.69.9-1.21 1.57-1.57a4.77 4.77 0 0 1 2.3-.55c.88 0 1.65.18 2.3.55.66.36 1.16.86 1.52 1.5.36.63.54 1.35.54 2.16Zm-2.27-.22c.03-.73-.16-1.28-.57-1.65a2.17 2.17 0 0 0-1.51-.56c-.61 0-1.12.19-1.54.56a2.3 2.3 0 0 0-.69 1.65h4.3Zm9.3.8v4.19h-2.26v-11.3h4.1c1.34 0 2.35.32 3.02.96.68.64 1.02 1.51 1.02 2.61 0 1.08-.35 1.94-1.05 2.58-.7.64-1.7.96-2.98.96h-1.86Zm1.6-1.81c1.33 0 2-.58 2-1.73 0-.56-.16-1-.47-1.3-.31-.3-.82-.44-1.52-.44h-1.62v3.47h1.62Zm9.06-2.98c.75 0 1.4.18 1.92.53.54.35.92.83 1.14 1.42v-1.84h2.24v8.87h-2.24v-1.86c-.22.6-.6 1.08-1.14 1.43-.53.36-1.17.54-1.92.54a3.68 3.68 0 0 1-3.42-2.12c-.33-.69-.5-1.5-.5-2.42 0-.93.17-1.74.5-2.43a3.68 3.68 0 0 1 3.42-2.12Zm.7 1.97c-.7 0-1.26.23-1.69.69a2.66 2.66 0 0 0-.64 1.89c0 .8.22 1.42.64 1.88.43.45 1 .68 1.7.68.68 0 1.24-.24 1.69-.7.44-.46.66-1.08.66-1.86 0-.8-.22-1.42-.66-1.88-.45-.47-1-.7-1.7-.7Zm8.74-.16a3.7 3.7 0 0 1 1.32-1.34 3.49 3.49 0 0 1 1.82-.48v2.41h-.66c-1.65 0-2.48.77-2.48 2.3v4.28h-2.25v-8.87h2.25v1.7Zm8.96 5.23v1.94h-1.18c-1 0-1.75-.24-2.28-.72-.53-.48-.8-1.28-.8-2.4v-3.84h-1.22v-1.9h1.23v-2.2h2.25v2.2h1.99v1.9h-1.99v3.87c0 .43.09.73.26.9.17.17.46.25.86.25h.88Zm6.74-7.05c1.02 0 1.84.33 2.45 1 .6.68.91 1.62.91 2.84v5.15h-2.24v-4.9c0-.7-.18-1.25-.54-1.64a1.93 1.93 0 0 0-1.5-.58c-.63 0-1.14.2-1.53.62-.38.42-.57 1.02-.57 1.8v4.7H135v-8.87h2.26v1.78c.23-.6.62-1.06 1.16-1.4.53-.34 1.16-.5 1.86-.5Zm13.52 4.22c0 .22-.03.48-.08.77h-6.5c.04.79.25 1.37.64 1.74.4.38.89.56 1.48.56.52 0 .95-.13 1.3-.38.35-.26.57-.6.66-1.04h2.39a3.81 3.81 0 0 1-2.23 2.81c-.6.28-1.28.42-2.01.42-.87 0-1.63-.18-2.3-.55-.68-.37-1.2-.9-1.57-1.58a4.96 4.96 0 0 1-.56-2.41 5 5 0 0 1 .56-2.43c.37-.69.9-1.21 1.56-1.57a4.77 4.77 0 0 1 2.3-.55c.88 0 1.65.18 2.3.55.66.36 1.17.86 1.52 1.5.36.63.54 1.35.54 2.16Zm-2.27-.22c.03-.73-.16-1.28-.57-1.65a2.17 2.17 0 0 0-1.51-.56c-.61 0-1.12.19-1.54.56a2.3 2.3 0 0 0-.69 1.65h4.3Zm5.97-2.18a3.7 3.7 0 0 1 1.3-1.34 3.49 3.49 0 0 1 1.83-.48v2.41h-.65c-1.66 0-2.48.77-2.48 2.3v4.28h-2.26v-8.87h2.26v1.7Z"></path></g></svg>