<svg xmlns="http://www.w3.org/2000/svg" xmlns:xlink="http://www.w3.org/1999/xlink" height="30" viewBox="0 0 142 30" width="142"><linearGradient id="c" x1="76.79%" x2="25.5%" y1="89.23%" y2="12.21%"><stop offset="0"></stop><stop offset=".45"></stop><stop offset=".86"></stop></linearGradient><linearGradient id="d" x1="21.71%" x2="97.11%" y1="75.04%" y2="24.88%"><stop offset=".13"></stop><stop offset="1"></stop></linearGradient><linearGradient id="e" x1="37.85%" x2="61.24%" y1="89.15%" y2="16.17%"><stop offset=".01"></stop><stop offset=".69"></stop></linearGradient><linearGradient id="f" x1="46.92%" x2="52.22%" y1="90.27%" y2="15.75%"><stop offset=".07"></stop><stop offset=".99"></stop></linearGradient><linearGradient id="a"><stop offset=".07"></stop><stop offset="1"></stop></linearGradient><linearGradient id="g" x1="52.12%" x2="47.56%" xlink:href="#a" y1="57.98%" y2="37.42%"></linearGradient><linearGradient id="h" x1="37.64%" x2="61.91%" xlink:href="#a" y1="13.79%" y2="63.2%"></linearGradient><linearGradient id="i" x1="34.26%" x2="62.76%" y1="68.93%" y2="23.21%"><stop offset=".28"></stop><stop offset=".91"></stop></linearGradient><linearGradient id="b"><stop offset="0"></stop><stop offset="1"></stop></linearGradient><linearGradient id="j" x1="43.52%" x2="57.83%" xlink:href="#b" y1="6.21%" y2="98.48%"></linearGradient><linearGradient id="k" x1="60.4%" x2="39.56%" y1="4.7%" y2="69.07%"><stop offset=".06"></stop><stop offset="1"></stop></linearGradient><linearGradient id="l" x1="29.58%" x2="61.47%" xlink:href="#b" y1="59.3%" y2="33.21%"></linearGradient><linearGradient id="m" x1="20.41%" x2="82.1%" y1="50.03%" y2="50.03%"><stop offset="0"></stop><stop offset="1"></stop></linearGradient><linearGradient id="n" x1="40%" x2="73.21%" y1="35.22%" y2="57.73%"><stop offset="0"></stop><stop offset="1"></stop></linearGradient><linearGradient id="o" x1="31.65%" x2="68.63%" y1="19.76%" y2="84.96%"><stop offset=".28"></stop><stop offset="1"></stop></linearGradient><g fill="none" opacity=".7"><path d="M24.23 1.32h2.47l4.19 7.48 4.2-7.48h2.4v12.3h-2V4.19l-3.69 6.53h-1.88l-3.68-6.53v9.43h-2.01zm19.76 12.51c-.93 0-1.75-.2-2.46-.6-.7-.41-1.27-1-1.65-1.7-.4-.72-.6-1.55-.6-2.48 0-.94.2-1.77.58-2.5a4.31 4.31 0 0 1 3.97-2.32c.89 0 1.65.2 2.29.62.64.41 1.13.99 1.47 1.73.35.74.52 1.62.52 2.62v.54h-6.83c.12.75.43 1.34.92 1.77.49.43 1.1.65 1.85.65.6 0 1.12-.1 1.56-.27.43-.17.83-.44 1.22-.8l1.06 1.3a5.58 5.58 0 0 1-3.9 1.44zm1.47-7.3a2.24 2.24 0 0 0-1.66-.63 2.3 2.3 0 0 0-1.67.65 3.01 3.01 0 0 0-.85 1.75h4.9a2.74 2.74 0 0 0-.72-1.76zm5.09-.45H48.7V4.45h1.85V1.76h1.94v2.7h2.81v1.62h-2.8v4.12c0 .68.1 1.17.35 1.46.23.3.64.44 1.22.44a6.23 6.23 0 0 0 1.23-.1v1.6a5.74 5.74 0 0 1-1.6.22c-2.1 0-3.15-1.13-3.15-3.4zm14.87 7.53h-1.9v-1.28c-.33.47-.78.86-1.3 1.11-.52.26-1.11.4-1.78.4a3.9 3.9 0 0 1-2.17-.62 4.28 4.28 0 0 1-1.5-1.7 5.49 5.49 0 0 1-.54-2.49c0-.94.18-1.76.55-2.49a4.1 4.1 0 0 1 3.77-2.31c.63 0 1.2.13 1.7.37s.93.6 1.26 1.03V4.45h1.9zm-1.94-5.95a2.62 2.62 0 0 0-2.54-1.7c-.83 0-1.5.28-1.99.83-.49.55-.73 1.3-.73 2.24 0 .94.23 1.68.7 2.23.48.55 1.13.83 1.94.83.6 0 1.13-.15 1.6-.46.47-.3.82-.72 1.02-1.23zm6.67-6.34h5.1c1.42 0 2.5.28 3.22.84a2.8 2.8 0 0 1 1.1 2.34c0 1.36-.67 2.27-2 2.74 1.73.43 2.6 1.43 2.6 3 0 1.06-.39 1.89-1.16 2.48s-1.89.9-3.34.9h-5.52V1.32zM75 6.58c1.66 0 2.49-.6 2.49-1.79 0-.59-.2-1.02-.59-1.3a3.15 3.15 0 0 0-1.8-.41h-2.95v3.5zm.6 5.27c1.66 0 2.49-.62 2.49-1.84 0-.57-.2-1-.59-1.3s-1.07-.43-2.03-.43h-3.32v3.57zm14.18 1.76h-1.91V12.3a3.4 3.4 0 0 1-2.96 1.53c-1.1 0-1.93-.34-2.51-1.02s-.88-1.65-.88-2.91V4.45h1.94v5.22c0 .85.15 1.48.45 1.88.3.4.78.61 1.43.61.55 0 1.05-.14 1.49-.43.43-.3.77-.7 1.01-1.22V4.45h1.94zm8.49-.55a4.5 4.5 0 0 1-2.77.77c-.98 0-1.83-.17-2.56-.5s-1.27-.8-1.63-1.38l1.31-1.12c.27.4.65.73 1.13.97.48.24 1.05.36 1.72.36 1.24 0 1.86-.36 1.86-1.07 0-.3-.1-.55-.3-.74a2 2 0 0 0-1.02-.39l-1.79-.3a3.5 3.5 0 0 1-1.93-.89 2.33 2.33 0 0 1-.67-1.72c0-.85.35-1.53 1.03-2.05a4.54 4.54 0 0 1 2.79-.77c.85 0 1.6.17 2.28.51a3.6 3.6 0 0 1 1.5 1.33l-1.34 1a2.3 2.3 0 0 0-1-.86 3.6 3.6 0 0 0-1.56-.31c-.55 0-.98.1-1.28.28a.88.88 0 0 0-.45.78c0 .29.1.51.28.67.18.16.5.27.92.35l2.02.35c.8.14 1.42.44 1.85.9.43.46.64 1.04.64 1.74 0 .87-.34 1.57-1.03 2.09zm2.8-10.16a1.18 1.18 0 0 1-.36-.88c0-.36.12-.66.36-.89.23-.23.54-.34.91-.34.38 0 .68.11.92.34.24.23.36.53.36.89 0 .35-.12.65-.36.88-.23.23-.54.35-.92.35-.37 0-.68-.12-.91-.35zm-.06 1.55h1.94v9.16h-1.94zm4.08 0h1.91V5.8a3.45 3.45 0 0 1 3-1.56c1.11 0 1.96.34 2.55 1.02.6.68.9 1.65.9 2.92v5.45h-1.95V8.39c0-.85-.15-1.48-.46-1.88-.3-.4-.8-.61-1.45-.61-.58 0-1.08.15-1.52.44-.44.3-.79.7-1.04 1.23v6.04h-1.94V4.45zm14.55 9.38c-.93 0-1.75-.2-2.46-.6-.7-.41-1.27-1-1.65-1.7-.4-.72-.6-1.55-.6-2.48 0-.94.2-1.77.58-2.5a4.31 4.31 0 0 1 3.97-2.32c.89 0 1.65.2 2.29.62.64.41 1.12.99 1.47 1.73.34.74.51 1.62.51 2.62v.54h-6.83c.13.75.44 1.34.93 1.77.48.43 1.1.65 1.85.65.6 0 1.12-.1 1.55-.27.43-.17.84-.44 1.22-.8l1.07 1.3a5.56 5.56 0 0 1-3.9 1.44zm1.47-7.3a2.24 2.24 0 0 0-1.66-.63 2.3 2.3 0 0 0-1.67.65 3.01 3.01 0 0 0-.85 1.75h4.9a2.72 2.72 0 0 0-.72-1.76zm10.61 6.53a4.5 4.5 0 0 1-2.77.77c-.98 0-1.83-.17-2.56-.5s-1.27-.8-1.63-1.38l1.31-1.12c.27.4.65.73 1.13.97.49.24 1.06.36 1.72.36 1.24 0 1.86-.36 1.86-1.07 0-.3-.1-.55-.3-.74a2 2 0 0 0-1.01-.39l-1.8-.3a3.5 3.5 0 0 1-1.92-.89 2.33 2.33 0 0 1-.67-1.72c0-.85.34-1.53 1.03-2.05a4.54 4.54 0 0 1 2.78-.77c.85 0 1.61.17 2.29.52a3.6 3.6 0 0 1 1.5 1.33l-1.34 1a2.3 2.3 0 0 0-1.01-.86 3.6 3.6 0 0 0-1.55-.32c-.55 0-.98.1-1.28.28a.88.88 0 0 0-.45.78c0 .3.1.52.27.67.19.16.5.28.93.35l2.01.36c.8.14 1.43.44 1.86.9.42.45.64 1.03.64 1.73 0 .87-.35 1.57-1.04 2.09zm9.1 0a4.5 4.5 0 0 1-2.78.77 6 6 0 0 1-2.56-.5 3.67 3.67 0 0 1-1.62-1.38l1.3-1.12c.28.4.65.73 1.14.97.48.24 1.05.36 1.71.36 1.24 0 1.87-.36 1.87-1.07 0-.3-.1-.55-.31-.74a2 2 0 0 0-1.01-.39l-1.8-.3a3.5 3.5 0 0 1-1.92-.89 2.33 2.33 0 0 1-.67-1.72c0-.85.34-1.53 1.03-2.05a4.54 4.54 0 0 1 2.78-.77c.85 0 1.61.17 2.29.51a3.6 3.6 0 0 1 1.5 1.33l-1.35 1a2.3 2.3 0 0 0-1-.86 3.6 3.6 0 0 0-1.55-.31c-.55 0-.98.1-1.28.28a.88.88 0 0 0-.45.78c0 .29.1.51.27.67.19.16.5.27.93.35l2.01.35c.8.14 1.43.44 1.85.9.43.46.65 1.04.65 1.74 0 .87-.35 1.57-1.04 2.09zm-116.6 3.63h4.73c1.59 0 2.81.35 3.68 1.07.86.7 1.3 1.73 1.3 3.06 0 1.32-.43 2.34-1.3 3.05s-2.09 1.07-3.68 1.07h-2.7v4.04h-2.03zm4.56 6.45c1.04 0 1.81-.2 2.31-.58.5-.38.75-.96.75-1.74 0-.8-.25-1.39-.75-1.76-.5-.38-1.27-.57-2.31-.57h-2.52v4.64zm15.04 5.85h-1.9V27.7c-.33.47-.78.85-1.3 1.1-.52.27-1.11.4-1.78.4a3.9 3.9 0 0 1-2.18-.62 4.28 4.28 0 0 1-1.49-1.7 5.49 5.49 0 0 1-.54-2.48c0-.94.18-1.77.55-2.5a4.1 4.1 0 0 1 3.77-2.31c.63.01 1.2.13 1.7.38.5.23.93.59 1.26 1.03v-1.18h1.9zm-1.94-5.96a2.62 2.62 0 0 0-2.54-1.69c-.83 0-1.5.28-1.99.83-.49.55-.74 1.3-.74 2.23 0 .94.24 1.69.72 2.24s1.11.82 1.93.82c.6 0 1.13-.15 1.6-.45.46-.3.82-.73 1.02-1.23zm3.9-3.2h1.91v1.37c.55-1 1.33-1.5 2.32-1.5.19 0 .38.01.57.04v1.78l-.6-.03c-1.13 0-1.88.54-2.26 1.62v5.88h-1.94zM53 21.45h-1.33v-1.62H53v-2.7h1.94v2.7h2.81v1.62h-2.8v4.12c0 .69.1 1.18.35 1.47.23.3.64.44 1.22.44a6.23 6.23 0 0 0 1.23-.11v1.6a5.74 5.74 0 0 1-1.6.22c-2.1 0-3.15-1.13-3.15-3.39zm6.32-1.62h1.92v1.33a3.45 3.45 0 0 1 3-1.55c1.1 0 1.95.34 2.54 1.02s.9 1.65.9 2.91V29h-1.94v-5.22c0-.85-.16-1.49-.47-1.89-.3-.4-.8-.6-1.45-.6-.58 0-1.08.14-1.52.44s-.78.7-1.03 1.22V29h-1.95zm14.55 9.38c-.93 0-1.75-.2-2.46-.61-.7-.4-1.27-1-1.65-1.7-.4-.72-.6-1.54-.6-2.47 0-.95.2-1.78.58-2.5a4.31 4.31 0 0 1 3.97-2.33c.89 0 1.65.21 2.29.62.64.42 1.13 1 1.47 1.73.35.75.52 1.62.52 2.62v.55h-6.83c.12.75.43 1.34.92 1.77.49.43 1.1.65 1.85.65.6 0 1.12-.09 1.55-.26.44-.18.84-.45 1.22-.8l1.07 1.29a5.58 5.58 0 0 1-3.9 1.44zm1.47-7.3a2.24 2.24 0 0 0-1.66-.63 2.3 2.3 0 0 0-1.67.65 3.01 3.01 0 0 0-.84 1.74h4.9a2.71 2.71 0 0 0-.73-1.76zm4.3-2.08h1.9v1.4c.6-1.02 1.43-1.53 2.47-1.53.33 0 .6.03.83.08v1.77c-.3-.04-.6-.06-.89-.06-1.16 0-1.95.51-2.37 1.55v5.95h-1.94zm12.7 8.6a4.5 4.5 0 0 1-2.78.78c-.98 0-1.83-.17-2.56-.51s-1.27-.8-1.63-1.37l1.31-1.13c.27.41.65.74 1.13.98.48.24 1.06.35 1.72.35 1.24 0 1.86-.35 1.86-1.07 0-.3-.1-.55-.3-.73a2 2 0 0 0-1.01-.4l-1.8-.3a3.5 3.5 0 0 1-1.93-.89 2.33 2.33 0 0 1-.67-1.72c0-.84.35-1.53 1.03-2.04a4.54 4.54 0 0 1 2.79-.78c.85 0 1.6.17 2.28.52a3.6 3.6 0 0 1 1.5 1.33l-1.34 1a2.3 2.3 0 0 0-1-.86 3.6 3.6 0 0 0-1.56-.32c-.55 0-.97.1-1.28.28a.88.88 0 0 0-.44.79c0 .28.09.5.27.66.18.16.5.28.93.36l2 .35c.82.14 1.43.44 1.86.9.43.46.64 1.04.64 1.73 0 .87-.34 1.57-1.03 2.1z" fill="#000"></path><path d="M5.67.1h-.02l-.02 2.12h.01c1.41 0 2.5 1.1 4.89 5.05l.14.24.01.02 1.33-1.97v-.02l-.9-1.39a22.8 22.8 0 0 0-.97-1.31C8.56.86 7.24.1 5.67.1z" fill="url(#c)" transform="translate(.34 .79)"></path><path d="M5.65.1c-1.58.01-2.98 1.03-4 2.57v.01l1.86 1v-.01c.6-.88 1.33-1.44 2.12-1.45h.01L5.67.11z" fill="url(#d)" transform="translate(.34 .79)"></path><path d="m1.66 2.67-.01.01A10.42 10.42 0 0 0 .23 6.3v.02l2.08.49v-.02a8.52 8.52 0 0 1 1.2-3.1v-.02z" fill="url(#e)" transform="translate(.34 .79)"></path><path d="M2.3 6.79.24 6.3v.02C.07 7.06 0 7.82 0 8.57v.02l2.14.19v-.15c0-.61.06-1.23.17-1.83V6.8z" fill="url(#f)" transform="translate(.34 .79)"></path><path d="M2.2 9.44a4.41 4.41 0 0 1-.07-.66v-.02L0 8.58v.01c0 .45.04.89.12 1.32v.02l2.09-.47-.01-.02z" fill="url(#g)" transform="translate(.34 .79)"></path><path d="M2.69 10.53a2.1 2.1 0 0 1-.48-1.07v-.02L.1 9.9l.01.02c.16.82.47 1.5.91 2.01l.01.01 1.66-1.4-.01-.02z" fill="url(#h)" transform="translate(.34 .79)"></path><path d="M9.2 5.47c-1.26 1.9-2.02 3.1-2.02 3.1-1.67 2.58-2.25 3.16-3.18 3.16-.4 0-.72-.14-.96-.4l-.02-.01-1.66 1.4.02.02c.6.7 1.47 1.1 2.54 1.1 1.61 0 2.77-.76 4.84-4.31l1.45-2.54c-.37-.58-.7-1.09-1.01-1.52z" fill="#000"></path><path d="m11.1 1.68-.01.01c-.34.36-.66.75-.95 1.15.3.39.63.83.96 1.31.4-.6.77-1.08 1.13-1.46l.01-.01z" fill="url(#i)" transform="translate(.34 .79)"></path><path d="M17.54 2.28A4.32 4.32 0 0 0 14.5.9c-1.18 0-2.17.64-3.06 1.57l-.02.01 1.14 1h.02c.58-.61 1.15-.91 1.79-.91.68 0 1.31.32 1.86.87l.02.01 1.3-1.15-.01-.02z" fill="#000"></path><path d="M19.74 8.3c-.05-2.8-1.05-5.31-2.52-6.8h-.01L15.9 2.64h.01c1.11 1.13 1.88 3.23 1.94 5.65v.02h1.89V8.3z" fill="url(#j)" transform="translate(.34 .79)"></path><path d="M19.74 8.31V8.3h-1.89v.37c0 .66-.1 1.19-.3 1.57v.02l1.4 1.44v-.01c.52-.78.79-1.86.79-3.17z" fill="url(#k)" transform="translate(.34 .79)"></path><path d="M17.55 10.23v.02c-.18.32-.43.54-.76.64l.64 1.99.25-.1.07-.03.04-.02c.43-.21.8-.53 1.07-.91l.05-.08.04-.05v-.02z" fill="url(#l)" transform="translate(.34 .79)"></path><path d="M16.38 10.94c-.2 0-.4-.03-.59-.11l-.65 2.03a3.73 3.73 0 0 0 2.3.01l-.63-1.99c-.14.04-.28.06-.43.06z" fill="url(#m)" transform="translate(.34 .79)"></path><path d="M15.07 10.24h-.02l-1.5 1.54v.01c.53.55 1.04.9 1.6 1.08l.66-2.03a2.2 2.2 0 0 1-.74-.6z" fill="url(#n)" transform="translate(.34 .79)"></path><path d="M15.06 10.23a26.02 26.02 0 0 1-1.9-2.78l-1.15-1.9-1.34 1.96.01.02.82 1.35a17.6 17.6 0 0 0 2.05 2.9l1.52-1.54-.01-.01z" fill="url(#o)" transform="translate(.34 .79)"></path></g></svg>