<svg xmlns="http://www.w3.org/2000/svg" height="29" viewBox="0 0 119 29" width="119"><g opacity=".7"><path d="M24.25 5.95a11.61 11.61 0 0 1 3.6 5.35c.13.41.33.72.68 1a8.82 8.82 0 0 1 3.03 9.52 8.84 8.84 0 0 1-7.79 6.33c-2.6.23-5.22.13-7.84.04v-5.5l2.02-.02c1.72 0 3.43.04 5.15-.02a3.37 3.37 0 0 0 .88-6.58c-.34-.11-.7-.17-1.04-.25-.47-3.57-.7-4.07-2.65-6zM3.57 26.38a8.86 8.86 0 0 1-.49-13.83l.85-.68.14-.16h-.02a10.14 10.14 0 0 1 6.92-1.18 8.97 8.97 0 0 1 5.1 3.16l-4 3.95c-.13-.15-.32-.44-.55-.68a3.43 3.43 0 0 0-5.77 1.33c-.5 1.63.13 3.02 1.86 4.13z"></path><path d="M10.97 10.53c-2.46-.48-4.75.02-6.92 1.18a9.6 9.6 0 0 1 2.21-4.34c4.4-5.46 13.02-6.14 17.99-1.42l-3.96 3.86c-.33-.2-.66-.43-1-.62a6.81 6.81 0 0 0-8.32 1.34zM3.57 26.38l4.04-3.96c.67.22 1.37.27 2.07.27h6.24l.01 5.5c-3 .01-6 .26-8.98-.23a7.11 7.11 0 0 1-3.38-1.58zM43.44 16.24c1.61 0 3.16-.08 4.7.02a3.56 3.56 0 0 1 3.35 3.4c.05 1.98-1.18 3.52-3.17 3.78-.94.12-1.9.02-3 .02v4.64h-1.88zm1.89 5.5h2.44a1.93 1.93 0 0 0 1.81-1.6 1.84 1.84 0 0 0-1.2-2c-1-.3-2.03-.13-3.05-.13zm14.29 6.38H57.9l-.16-.9c-.9.9-1.86 1.34-3.08 1.12-1.46-.26-2.47-1.28-2.52-2.62-.06-1.39.8-2.4 2.3-2.77 1.11-.27 2.18-.11 3.29.23.18-.83-.24-1.31-.85-1.66-.95-.52-1.96-.28-3.1.72l-1.28-.83c-.06-.32.16-.45.31-.6a4.82 4.82 0 0 1 5.65-.35 2.64 2.64 0 0 1 1.14 2.06c.05 1.84.02 3.68.02 5.6zm-4-1.3c.87 0 1.7-.57 2.04-1.36.22-.5.16-.83-.43-1.01a4.17 4.17 0 0 0-1.83-.15c-.81.12-1.4.72-1.37 1.35.04.68.72 1.18 1.59 1.18zm33.87-1.44 1.53.78a4.3 4.3 0 0 1-5.57 1.88 4.39 4.39 0 0 1-2.26-5.51 4.22 4.22 0 0 1 5-2.71c2 .44 3.24 2.36 2.93 4.6H84.9c.03 1.06.53 1.8 1.43 2.11 1.33.46 2.37.02 3.15-1.15zM89.23 23c-.16-1.06-.88-1.65-2-1.7a2.03 2.03 0 0 0-2.18 1.7zm-13.27 5.1h-1.83v-8.09h1.7l.08 1.02c.75-.79 1.56-1.31 2.65-1.3 1.87 0 3.04 1.07 3.09 2.92.04 1.79 0 3.57 0 5.38-.58.22-1.16.05-1.86.13V23.2c0-.72-.2-1.33-.96-1.6-.82-.3-1.55-.18-2.17.44-.39.4-.61.88-.63 1.43-.04 1.17-.05 2.34-.07 3.51v1.13zM51.1 5.5H48c-.16-.4-.14-.72-.02-1.08h4.19c.56 1.8-.5 3.85-2.37 4.63a4.86 4.86 0 0 1-6.08-2.02A4.74 4.74 0 0 1 45.08.89a4.6 4.6 0 0 1 6.01.48c-.14.3-.41.5-.72.75a3.5 3.5 0 0 0-2.99-.96c-.76.08-1.4.42-1.95.92a3.83 3.83 0 0 0-.67 4.4 3.62 3.62 0 0 0 4.06 1.71 2.75 2.75 0 0 0 2.28-2.7zm21.79 14.44v1.64h-1.97c0 1.43-.05 2.76.01 4.09.05.85.52 1.05 1.7.87l.53 1.51c-2.38.99-4.15-.14-4.15-2.6v-3.8l-1.37-.07a5.01 5.01 0 0 1-.03-1.6l1.39-.05v-2.45h1.8c.22.79-.04 1.6.17 2.46h1.92zm-.36-16.2c-.04-.98.57-.67 1.09-.68 0 2.22.09 4.42-.04 6.6-.07 1.31-1.14 2.2-2.45 2.4-1.57.25-2.57-.22-3.38-1.62.19-.36.6-.34.9-.51.94 1.12 1.75 1.4 2.77.96.84-.37 1.2-1.16 1.05-2.29-1.88 1.12-3.2 1.04-4.27-.24a3.54 3.54 0 0 1 .12-4.6c1.1-1.17 2.48-1.2 4.2-.03zm.02 2.33c-.02-1.24-.86-2.18-1.97-2.18-1.14 0-2 .98-1.99 2.26.01 1.27.89 2.24 2.02 2.21 1.15-.02 1.96-.98 1.94-2.29zm44.66-2.35V.3c.39-.16.73-.12 1.13-.03V9.1c-.95.19-.95.19-1.18-.59a2.83 2.83 0 0 1-4.34-.25 3.55 3.55 0 0 1 .24-4.54c1.1-1.13 2.53-1.16 4.15 0zm.05 2.39c0-1.25-.83-2.19-1.94-2.21-1.13-.03-2.02.94-2.02 2.21 0 1.28.85 2.25 1.98 2.25 1.15 0 1.98-.95 1.98-2.25zm-23.08.98.77.68a4.75 4.75 0 0 1-6.74.47 4.8 4.8 0 0 1-.18-6.9 4.63 4.63 0 0 1 6.69.18l-.88.61c-.78-.85-1.88-1.14-3.11-.95-.85.12-1.53.54-2.07 1.19a3.83 3.83 0 0 0 .2 4.91c1.4 1.4 3.39 1.32 5.32-.19zM92.42 20h1.64c.2.34.04.69.15 1.1.99-1.11 2.11-1.74 3.65-1.1l-.5 1.62c-.77-.07-1.5-.2-2.15.3-.77.6-.95 1.4-.96 2.3v3.88c-.64.08-1.21.07-1.83 0zM83.29 6.35h-4.78c0 .98.41 1.58 1.24 1.88.9.32 1.63.06 2.37-.84.34-.02.6.2.9.3-.42 1.34-1.87 2-3.44 1.63-1.6-.39-2.6-2.04-2.3-3.78.3-1.76 1.7-2.86 3.4-2.68 1.7.18 2.7 1.5 2.61 3.49zm-1.31-1.01c-.13-.94-.71-1.44-1.64-1.46-.89 0-1.58.58-1.7 1.46zM63.3 28.16c-.64.1-1.22.1-1.82 0V20.1h1.67l.07 1.1c.57-.7 1.2-1.2 2.06-1.36 1.08-.2 1.24-.08 1.24.97v.68c-.11.19-.22.15-.33.14-1.94-.15-2.87.68-2.88 2.58-.02 1.3 0 2.6 0 3.94zM56.21 9.4A3.16 3.16 0 0 1 53 6.13c0-1.9 1.41-3.32 3.28-3.29a3.18 3.18 0 0 1 3.15 3.33 3.15 3.15 0 0 1-3.23 3.24zm2.05-3.3c0-1.24-.93-2.24-2.05-2.23-1.13.02-2.02 1.02-2.01 2.27 0 1.25.91 2.23 2.05 2.22 1.13-.02 2.01-1 2-2.26zm5.07 3.3c-1.84-.01-3.2-1.4-3.2-3.27 0-1.9 1.4-3.32 3.27-3.3a3.18 3.18 0 0 1 3.16 3.32 3.16 3.16 0 0 1-3.23 3.25zm2.04-3.33c-.01-1.23-.96-2.23-2.07-2.2-1.14.04-2 1.05-1.99 2.3.02 1.24.94 2.22 2.08 2.19 1.13-.04 2-1.03 1.98-2.29zm36.1 3.33a3.15 3.15 0 0 1-3.24-3.23 3.18 3.18 0 0 1 3.22-3.34c1.82 0 3.2 1.4 3.2 3.28a3.16 3.16 0 0 1-3.17 3.29zm2-3.29c0-1.24-.91-2.24-2.04-2.24-1.12.01-2.02 1.01-2.02 2.26 0 1.25.9 2.23 2.04 2.23 1.14-.01 2.02-1 2.02-2.25zm2.23-3.04h1.13v3.36c.02 1.32.47 1.9 1.48 1.92.95.02 1.65-.77 1.67-1.94.02-1.1 0-2.21 0-3.3.44-.11.77-.1 1.15-.03v6.06c-.48.04-1.02.34-1.2-.56-.55.38-1.05.77-1.73.81-1.35.08-2.38-.63-2.48-1.96-.1-1.43-.02-2.88-.02-4.36zM76.17 9.16c-.38.07-.7.09-1.07-.02V.29c.33-.19.68-.06 1.07-.1zm20.97 0H96.1c-.02-.16-.05-.3-.05-.43V.34c.36-.25.7-.12 1.1-.13z"></path><path d="m4.07 11.7-.14.17c0-.09 0-.18.14-.16z"></path></g></svg>