<svg xmlns="http://www.w3.org/2000/svg" height="30" viewBox="0 0 79 30" width="79"><g fill="none" opacity=".7"><path d="M21.68 5.48a.28.28 0 0 0-.25-.23l-2.26-.16-1.67-1.66a.68.68 0 0 0-.6-.08l-.85.26C15.54 2.17 14.66.84 13.1.84h-.12A1.9 1.9 0 0 0 11.5 0C7.9 0 6.15 4.53 5.6 6.84l-2.54.79c-.78.25-.8.27-.91 1.03L.02 25.15l16.04 3 8.7-1.88-3.08-20.79zm-6.52-1.62-1.36.42V4c.02-.74-.1-1.48-.32-2.2.8.13 1.34 1.04 1.68 2.07zm-2.68-1.88c.28.78.4 1.61.37 2.44v.16l-2.8.87c.53-2.07 1.55-3.07 2.43-3.45zM11.4.95a.8.8 0 0 1 .47.15c-1.16.55-2.4 1.93-2.93 4.68l-2.22.69C7.34 4.37 8.8.97 11.4.97z" fill="#000"></path><path d="m21.43 5.25-2.26-.16-1.67-1.66a.42.42 0 0 0-.23-.1l-1.21 24.8 8.69-1.89-3.07-20.76a.28.28 0 0 0-.25-.23z" fill="#000"></path><path d="m13.1 10.05-1.07 3.19a4.93 4.93 0 0 0-2.09-.52c-1.69 0-1.77 1.03-1.77 1.32 0 1.46 3.8 2.02 3.8 5.43 0 2.68-1.71 4.41-4 4.41a5.57 5.57 0 0 1-4.17-1.72l.74-2.43s1.45 1.24 2.67 1.24a1.08 1.08 0 0 0 1.12-1.09c0-1.9-3.09-1.98-3.09-5.1 0-2.63 1.89-5.15 5.67-5.15.75-.04 1.5.1 2.19.42z" fill="#fff"></path><g fill="#000"><path d="M35.98 7.07c-.52-.27-.76-.51-.76-.82 0-.4.36-.67.92-.67.43.01.85.1 1.25.28l.46-1.42s-.43-.33-1.68-.33c-1.75 0-2.95 1-2.95 2.4 0 .8.56 1.4 1.31 1.84.61.35.83.59.83.95 0 .37-.3.68-.87.68a3.87 3.87 0 0 1-1.63-.43l-.52 1.42c.6.34 1.28.5 1.97.49 1.8 0 3.1-.88 3.1-2.47 0-.86-.65-1.47-1.43-1.92zM43.14 4.1c-.83 0-1.61.39-2.12 1.05h-.03l.77-4.01h-2l-1.94 10.2h2l.66-3.48c.27-1.32.95-2.13 1.59-2.13.44 0 .62.3.62.74 0 .3-.03.59-.09.88l-.75 4h2l.78-4.13c.08-.43.13-.86.14-1.3 0-1.15-.6-1.83-1.63-1.83zM49.3 4.1c-2.42 0-4 2.16-4 4.58a2.61 2.61 0 0 0 2.74 2.8c2.36 0 3.96-2.12 3.96-4.6 0-1.43-.84-2.79-2.7-2.79zm-1 5.84c-.67 0-.96-.58-.96-1.3 0-1.15.6-3.01 1.68-3.01.7 0 .94.6.94 1.2.01 1.23-.6 3.1-1.65 3.1zM57.11 4.1c-.85.04-1.63.47-2.11 1.18h-.03l.11-1.07h-1.76c-.1.72-.25 1.82-.41 2.65l-1.4 7.3h2l.55-2.94h.03c.37.18.77.27 1.17.25 2.36 0 3.89-2.4 3.89-4.83.02-1.35-.58-2.55-2.04-2.55zM55.2 9.96c-.3 0-.6-.1-.83-.29l.34-1.87c.23-1.24.88-2.06 1.58-2.06.6 0 .8.57.8 1.1 0 1.28-.77 3.12-1.9 3.12zM62.02 1.23c-.3 0-.6.12-.81.33s-.34.51-.33.82a.92.92 0 0 0 .94 1A1.13 1.13 0 0 0 63 2.23a.95.95 0 0 0-.98-1zM59.23 11.33h2l1.36-7.08h-2.02zM67.67 4.23h-1.4l.08-.32c.12-.69.52-1.3 1.2-1.3.2 0 .42.04.63.1l.39-1.54a2.6 2.6 0 0 0-1.09-.18c-.71-.02-1.4.22-1.95.67-.64.6-1.05 1.4-1.16 2.26l-.06.33h-.94l-.29 1.5h.93l-1.06 5.6h2L66 5.74h1.37zM72.48 4.25s-1.25 3.15-1.81 4.86h-.03c-.04-.55-.52-4.86-.52-4.86h-2.1l1.2 6.5c.04.11.03.23-.03.33-.27.48-.64.9-1.1 1.2-.34.25-.72.44-1.12.57l.55 1.7c.73-.2 1.4-.58 1.95-1.1 1.1-1.15 2-2.5 2.63-3.96l2.44-5.24z"></path><text font-family="Helvetica" font-size="14.87" transform="translate(.02)"><tspan x="30.94" y="25.62">partner</tspan></text></g></g></svg>