<svg xmlns="http://www.w3.org/2000/svg" height="30" viewBox="0 0 78 30" width="78"><g fill="#4c4c4c" transform="translate(.38)"><path d="M.1.04h12.2l-1.11 3.5H8.02v12.71H4.06V3.53H.11zM32.29.04h12.48l-1.12 3.5h-3.44v12.71h-3.95V3.53H32.3zM13.05 5.2h3.91v11.05h-3.88zM18.51 0h3.9v7.55l3.88-3.74h4.67l-4.9 4.7 5.49 7.74h-4.31l-3.66-5.38-1.16 1.1v4.28h-3.9zM58.54 0h3.95v7.55l3.87-3.74h4.66l-4.9 4.7 5.45 7.74h-4.3l-3.66-5.38-1.12 1.1v4.28h-3.92zM15 3.94c1.1 0 1.98-.88 1.98-1.95C16.98.92 16.09.04 15 .04S13.04.92 13.04 2c0 1.07.88 1.95 1.97 1.95zM50.39 12.85a3.24 3.24 0 0 1-3.26-3.21 3.24 3.24 0 0 1 3.26-3.22c1.8 0 3.25 1.44 3.25 3.22a3.24 3.24 0 0 1-3.25 3.21zm0-9.83c-3.7 0-6.7 2.96-6.7 6.62 0 3.65 3 6.61 6.7 6.61s6.69-2.96 6.69-6.61c0-1.76-.7-3.44-1.96-4.68a6.73 6.73 0 0 0-4.73-1.94z"></path><ellipse cx="74.92" cy="7.64" rx="1.72" ry="1.7"></ellipse><ellipse cx="74.92" cy="12.56" rx="1.72" ry="1.7"></ellipse><path d="M6.59 27.85h-.76v-4.28c0-.34.03-.76.07-1.25h-.02c-.07.3-.14.5-.2.62l-2.2 4.91H3.1L.9 22.98a3.79 3.79 0 0 1-.2-.66H.7c.03.26.04.68.04 1.26v4.27H0v-6.39h1l1.98 4.46c.16.34.25.6.3.77h.03l.3-.79 2.03-4.44h.95zM11.59 27.85h-.74v-.71h-.02c-.32.55-.8.82-1.42.82-.46 0-.82-.12-1.08-.36a1.25 1.25 0 0 1-.39-.96c0-.85.5-1.35 1.52-1.49l1.39-.19c0-.77-.32-1.16-.95-1.16-.56 0-1.06.19-1.5.56v-.75c.44-.28.97-.43 1.56-.43 1.08 0 1.63.57 1.63 1.7zm-.74-2.3-1.12.15c-.34.04-.6.13-.77.25-.18.12-.26.33-.26.64 0 .22.08.4.24.55.16.13.37.2.64.2.37 0 .67-.12.9-.37.25-.26.37-.58.37-.97zM15.48 24.03a.91.91 0 0 0-.56-.15c-.32 0-.58.15-.8.44-.2.3-.31.7-.31 1.2v2.33h-.74V23.3h.74v.94h.02c.1-.32.26-.57.48-.75.21-.18.46-.27.72-.27.2 0 .34.02.45.06zM20.2 27.85h-1.04l-2.03-2.19h-.02v2.2h-.74V21.1h.74v4.28h.02l1.93-2.09h.97l-2.14 2.2zM24.76 25.75H21.5c.01.51.15.9.41 1.18.27.28.63.41 1.1.41.51 0 .99-.16 1.43-.5v.68c-.41.3-.95.44-1.61.44-.65 0-1.17-.2-1.54-.62-.37-.42-.56-1-.56-1.75 0-.71.2-1.29.61-1.73.4-.45.92-.68 1.52-.68s1.07.2 1.4.58c.33.39.5.92.5 1.61zm-.76-.62c0-.42-.1-.75-.31-.98-.2-.23-.48-.35-.84-.35-.35 0-.65.12-.9.37-.24.24-.39.57-.44.96zM28.11 27.8c-.17.1-.4.15-.69.15-.8 0-1.21-.45-1.21-1.34v-2.7h-.8v-.62h.8v-1.11l.74-.24v1.35h1.16v.62h-1.16v2.57c0 .31.05.53.15.66.11.13.28.2.53.2.18 0 .34-.05.48-.16zM29.57 22.13a.47.47 0 0 1-.48-.47c0-.14.05-.25.14-.34.1-.1.2-.14.34-.14.13 0 .25.05.34.14.1.09.14.2.14.34 0 .13-.04.24-.14.33-.1.1-.2.14-.34.14zm.36 5.72h-.74V23.3h.74zM35.34 27.85h-.73v-2.6c0-.97-.36-1.45-1.08-1.45-.37 0-.67.14-.92.41-.24.28-.36.62-.36 1.04v2.6h-.73V23.3h.73v.76h.02c.35-.58.86-.87 1.52-.87.5 0 .89.17 1.15.49.27.32.4.78.4 1.4zM40.77 27.49c0 1.67-.81 2.51-2.43 2.51a3.3 3.3 0 0 1-1.5-.32v-.73a3.1 3.1 0 0 0 1.49.43c1.13 0 1.7-.6 1.7-1.8v-.5h-.02c-.35.59-.88.88-1.58.88-.58 0-1.04-.2-1.39-.6-.35-.41-.52-.96-.52-1.64 0-.78.19-1.4.56-1.85.38-.46.9-.69 1.55-.69.62 0 1.08.25 1.38.74h.02v-.63h.74zm-.74-1.7v-.67c0-.37-.12-.68-.37-.93a1.22 1.22 0 0 0-.93-.4c-.45 0-.8.17-1.07.5-.26.33-.38.79-.38 1.38 0 .5.12.91.36 1.22.25.3.58.45 1 .45.4 0 .74-.14 1-.43.26-.3.4-.67.4-1.12zM45.84 25.44v2.41h-.76v-6.39h1.78c.69 0 1.22.17 1.6.5.38.34.57.8.57 1.41s-.2 1.1-.63 1.49c-.42.38-1 .58-1.7.58zm0-3.3v2.62h.8c.51 0 .91-.12 1.19-.35.27-.24.41-.57.41-1 0-.85-.5-1.27-1.51-1.27zM53.23 27.85h-.73v-.71h-.02c-.32.55-.8.82-1.42.82-.46 0-.82-.12-1.08-.36a1.25 1.25 0 0 1-.39-.96c0-.85.5-1.35 1.52-1.49l1.39-.19c0-.77-.32-1.16-.95-1.16-.56 0-1.06.19-1.51.56v-.75c.45-.28.98-.43 1.57-.43 1.08 0 1.62.57 1.62 1.7zm-.73-2.3-1.12.15c-.34.04-.6.13-.77.25-.18.12-.26.33-.26.64 0 .22.08.4.24.55.16.13.37.2.64.2.37 0 .67-.12.9-.37.25-.26.37-.58.37-.97zM57.12 24.03a.91.91 0 0 0-.55-.15c-.32 0-.58.15-.8.44-.2.3-.31.7-.31 1.2v2.33h-.74V23.3h.74v.94h.02c.1-.32.26-.57.48-.75.21-.18.46-.27.72-.27.2 0 .34.02.44.06zM60.16 27.8c-.18.1-.4.15-.69.15-.8 0-1.21-.45-1.21-1.34v-2.7h-.8v-.62h.8v-1.11l.74-.24v1.35h1.16v.62H59v2.57c0 .31.05.53.15.66.1.13.28.2.53.2.18 0 .34-.05.48-.16zM65.07 27.85h-.74v-2.6c0-.97-.36-1.45-1.07-1.45-.37 0-.68.14-.92.41-.24.28-.36.62-.36 1.04v2.6h-.74V23.3h.74v.76h.01c.35-.58.86-.87 1.52-.87.5 0 .89.17 1.16.49.26.32.4.78.4 1.4zM70.26 25.75h-3.25c0 .51.15.9.41 1.18.27.28.63.41 1.1.41.51 0 .99-.16 1.42-.5v.68c-.4.3-.94.44-1.6.44-.66 0-1.17-.2-1.54-.62-.37-.42-.56-1-.56-1.75 0-.71.2-1.29.6-1.73.42-.45.92-.68 1.53-.68s1.07.2 1.4.58c.33.39.5.92.5 1.61zm-.75-.62c0-.42-.11-.75-.31-.98-.2-.23-.49-.35-.85-.35-.34 0-.64.12-.88.37-.25.24-.4.57-.45.96zM73.88 24.03a.91.91 0 0 0-.55-.15c-.32 0-.58.15-.8.44-.2.3-.31.7-.31 1.2v2.33h-.74V23.3h.74v.94h.01c.11-.32.27-.57.49-.75.21-.18.45-.27.72-.27.2 0 .34.02.44.06zM74.5 27.69v-.79c.4.3.84.44 1.33.44.65 0 .97-.2.97-.64a.53.53 0 0 0-.09-.3.77.77 0 0 0-.22-.23c-.1-.07-.2-.12-.33-.18l-.41-.16a6 6 0 0 1-.54-.24 1.8 1.8 0 0 1-.4-.28 1.1 1.1 0 0 1-.23-.35 1.26 1.26 0 0 1 .08-1.02c.1-.17.23-.3.4-.42.16-.11.35-.2.56-.25a2.67 2.67 0 0 1 1.73.12v.74a2.1 2.1 0 0 0-1.55-.28.91.91 0 0 0-.29.13.64.64 0 0 0-.18.2.53.53 0 0 0-.07.26c0 .12.03.22.07.3.04.08.1.15.2.21.08.06.18.12.3.17l.4.17c.21.07.4.15.56.24.16.08.3.17.41.27a1.03 1.03 0 0 1 .36.83c0 .23-.05.42-.16.59-.1.17-.23.3-.4.41-.16.11-.36.2-.58.25a2.9 2.9 0 0 1-1.92-.2z"></path></g></svg>